<?xml version="1.0" encoding="UTF-8" standalone="no"?>
<!-- Created with Inkscape (http://www.inkscape.org/) -->

<svg
   width="23.28409mm"
   height="27.990395mm"
   viewBox="0 0 23.28409 27.990394"
   version="1.1"
   id="svg2320"
   sodipodi:docname="2022-CH-04_dill.svg"
   inkscape:version="1.1.1 (3bf5ae0d25, 2021-09-20)"
   xmlns:inkscape="http://www.inkscape.org/namespaces/inkscape"
   xmlns:sodipodi="http://sodipodi.sourceforge.net/DTD/sodipodi-0.dtd"
   xmlns="http://www.w3.org/2000/svg"
   xmlns:svg="http://www.w3.org/2000/svg">
  <sodipodi:namedview
     id="namedview2322"
     pagecolor="#ffffff"
     bordercolor="#666666"
     borderopacity="1.0"
     inkscape:pageshadow="2"
     inkscape:pageopacity="0.0"
     inkscape:pagecheckerboard="0"
     inkscape:document-units="mm"
     showgrid="false"
     fit-margin-top="0"
     fit-margin-left="0"
     fit-margin-right="0"
     fit-margin-bottom="0"
     inkscape:zoom="1.3273709"
     inkscape:cx="50.852402"
     inkscape:cy="135.98309"
     inkscape:window-width="1920"
     inkscape:window-height="1137"
     inkscape:window-x="-8"
     inkscape:window-y="-8"
     inkscape:window-maximized="1"
     inkscape:current-layer="layer1" />
  <defs
     id="defs2317" />
  <g
     inkscape:label="Ebene 1"
     inkscape:groupmode="layer"
     id="layer1"
     transform="translate(-82.294324,-80.272428)">
    <g
       transform="matrix(0.09311084,0,0,0.09311084,62.556184,64.476119)"
       id="g1009"
       style="clip-rule:evenodd;fill-rule:evenodd;stroke-linecap:round;stroke-linejoin:round">
      <g
         id="g1007">
        <path
           d="m 366.854,207.847 c -12.696,18.888 -20.839,36.085 -29.854,51.15 -6.548,10.942 -13.557,20.746 -23.214,29.22 6.745,-12.573 5.806,-25.301 3.756,-37.775 -1.29,-7.845 -3.024,-15.577 -3.351,-23.079 -0.313,-7.159 0.672,-14.106 4.771,-20.71 0.026,-0.042 0.051,-0.085 0.074,-0.128 5.405,0.342 10.913,-1.112 15.438,-4.803 2.431,-1.984 5.771,-6.338 7.71,-10.752 1.413,-3.217 2.035,-6.474 1.377,-8.971 -0.176,-0.666 -0.57,-1.114 -1.121,-1.399 -0.359,-0.186 -0.912,-0.347 -1.617,-0.182 -0.264,0.061 -0.97,0.378 -1.232,0.498 -0.864,0.161 -1.573,0.851 -1.716,1.768 -0.176,1.125 0.563,2.182 1.662,2.416 -0.146,1.296 -0.633,2.723 -1.261,4.154 -1.646,3.747 -4.436,7.476 -6.501,9.16 -1.399,1.142 -2.912,2.02 -4.492,2.655 1.217,-2.969 1.766,-6.897 2.297,-10.024 0.406,-2.389 1.011,-4.749 0.889,-6.176 -0.126,-1.467 -0.806,-2.406 -1.824,-2.891 -1.064,-0.507 -2.338,-0.055 -2.845,1.009 -0.396,0.832 -0.205,1.793 0.405,2.414 -0.017,0.305 -0.061,0.897 -0.142,1.36 -0.189,1.077 -0.479,2.318 -0.691,3.569 -0.511,3.007 -0.967,6.859 -2.235,9.569 -0.552,1.179 -1.2,2.167 -2.353,2.309 -0.2,0.025 -0.391,0.077 -0.569,0.151 -1.38,-0.017 -2.758,-0.181 -4.109,-0.479 -1.471,-4.135 -3.142,-8.56 -3.012,-12.704 0.015,-0.479 0.372,-0.955 0.671,-1.454 0.595,-0.993 1.214,-1.977 1.473,-2.823 0.47,-1.531 0.201,-2.839 -1.149,-3.871 -0.936,-0.715 -2.276,-0.536 -2.991,0.399 -0.569,0.744 -0.573,1.744 -0.08,2.481 -0.17,0.33 -0.459,0.874 -0.688,1.247 -0.781,1.275 -1.464,2.653 -1.503,3.888 -0.111,3.557 0.896,7.316 2.111,10.963 -3.652,-1.892 -6.74,-4.842 -8.557,-8.556 -0.567,-1.158 -0.478,-2.448 -0.302,-3.735 0.241,-1.766 0.694,-3.539 0.797,-5.153 0.076,-1.176 -0.817,-2.191 -1.993,-2.267 -1.175,-0.075 -2.191,0.818 -2.266,1.993 -0.098,1.52 -0.54,3.187 -0.767,4.849 -0.292,2.14 -0.245,4.265 0.697,6.189 3.087,6.308 9.181,10.785 15.956,12.488 -3.895,6.961 -4.904,14.237 -4.577,21.736 0.335,7.665 2.086,15.568 3.404,23.584 2.211,13.456 3.193,27.274 -7.002,40.776 -4.17,-26.248 -13.785,-48.125 -31.725,-63.272 2.89,-2.542 5.223,-5.772 6.675,-9.644 1.241,-3.309 2.018,-9.441 1.401,-14.835 -0.445,-3.894 -1.662,-7.388 -3.699,-9.425 -0.588,-0.588 -1.28,-0.773 -2.066,-0.594 -0.331,0.076 -0.78,0.263 -1.202,0.694 -0.209,0.213 -0.671,0.872 -0.832,1.105 -0.68,0.572 -0.955,1.536 -0.613,2.41 0.429,1.097 1.668,1.639 2.765,1.21 0.04,-0.016 0.082,-0.034 0.125,-0.054 0.681,1.425 1.064,3.233 1.281,5.139 0.535,4.671 -0.082,9.986 -1.157,12.852 -0.818,2.181 -1.97,4.118 -3.373,5.796 -0.361,-3.739 -2.204,-8.206 -3.546,-11.777 -0.96,-2.551 -1.7,-5.191 -2.627,-6.508 -0.892,-1.267 -2.002,-1.771 -3.184,-1.672 -1.174,0.098 -2.047,1.13 -1.949,2.304 0.079,0.959 0.783,1.717 1.678,1.909 0.118,0.201 0.313,0.549 0.434,0.833 0.538,1.276 1.03,2.982 1.652,4.636 1.228,3.268 2.992,7.341 3.299,10.752 0.103,1.141 0.072,2.201 -0.376,3.027 -0.061,0.061 -0.119,0.127 -0.174,0.197 -0.087,0.112 -0.161,0.23 -0.222,0.352 -0.099,0.105 -0.209,0.204 -0.33,0.296 -0.175,0.133 -0.323,0.288 -0.445,0.458 -1.448,0.825 -2.989,1.489 -4.583,1.989 -3.87,-3.272 -8.132,-6.719 -10.416,-10.936 -0.28,-0.517 -0.217,-1.24 -0.208,-1.955 0.016,-1.289 0.063,-2.584 -0.161,-3.544 -0.385,-1.644 -1.32,-2.698 -3.097,-2.921 -1.169,-0.147 -2.237,0.682 -2.384,1.851 -0.123,0.983 0.444,1.895 1.323,2.247 0.027,0.424 0.072,1.251 0.06,1.823 -0.036,1.646 0.066,3.337 0.714,4.533 2.014,3.718 5.366,6.947 8.809,9.938 -4.958,0.392 -10.021,-0.731 -14.18,-3.503 -1.268,-0.846 -1.955,-2.207 -2.542,-3.627 -0.771,-1.865 -1.338,-3.859 -2.158,-5.498 -0.526,-1.053 -1.809,-1.481 -2.863,-0.954 -1.053,0.527 -1.481,1.809 -0.954,2.863 0.777,1.554 1.299,3.451 2.03,5.219 0.916,2.215 2.142,4.23 4.12,5.548 8.67,5.781 20.624,5.5 29.439,0.076 18.532,15.22 27.857,37.837 31.587,64.99 -0.322,0.34 -0.652,0.681 -0.99,1.021 -0.42,0.423 -0.63,0.982 -0.62,1.54 -3.588,5.69 -11.562,19.34 -16.677,30.13 -2.701,5.697 -4.577,10.655 -4.786,13.374 -0.703,9.145 1.31,18.19 3.349,27.221 1.945,8.609 3.916,17.204 3.222,25.88 -0.944,11.792 -5.488,22.276 -11.044,32.379 -3.128,5.687 -6.575,11.254 -9.918,16.852 0.606,-4.933 0.945,-11.376 1.11,-17.15 0.349,-0.197 0.688,-0.485 1.006,-0.882 0.719,-0.898 1.458,-2.887 2.004,-5.714 2.615,-13.538 3.036,-48.974 3.036,-54.88 0,-1.178 -0.957,-2.134 -2.135,-2.134 -1.177,0 -2.134,0.956 -2.134,2.134 0,4.89 -0.269,30.329 -1.884,46.24 -1.183,-10.989 -4.206,-21.543 -8.445,-31.654 0.05,-0.025 0.1,-0.05 0.148,-0.077 1.297,-0.701 2.254,-2.037 2.769,-3.877 1.384,-4.943 -0.556,-14.342 -0.946,-16.489 -0.211,-1.159 -1.323,-1.928 -2.482,-1.718 -1.159,0.211 -1.929,1.323 -1.718,2.482 0.302,1.661 1.732,8.124 1.339,12.748 -0.084,0.99 -0.241,1.882 -0.574,2.561 -0.078,0.159 -0.156,0.308 -0.263,0.419 -0.734,-1.614 -1.498,-3.218 -2.289,-4.81 0.164,-0.691 -0.02,-1.45 -0.556,-1.994 -0.293,-0.297 -0.592,-0.583 -0.898,-0.859 -0.505,-0.969 -1.021,-1.936 -1.546,-2.899 -1.262,-2.314 -6.727,-9.077 -9.901,-13.638 -0.923,-1.327 -1.787,-2.895 -1.896,-3.096 -0.117,-1.067 -1.023,-1.898 -2.121,-1.898 -1.178,0 -2.134,0.956 -2.134,2.134 0,0.603 0.428,1.872 1.407,3.435 1.802,2.875 5.5,7.579 8.143,11.127 -2.454,-0.954 -4.879,-1.551 -6.998,-1.95 -2.777,-0.522 -4.946,-0.625 -5.648,-0.906 -1.094,-0.437 -2.337,0.095 -2.774,1.189 -0.438,1.094 0.095,2.337 1.189,2.774 0.803,0.322 3.267,0.54 6.444,1.138 3.701,0.697 8.532,2.021 12.418,5.271 5.46,10.596 9.733,21.723 11.947,33.384 -7.429,-12.729 -14.291,-17.022 -24.128,-26.858 -0.833,-0.833 -2.185,-0.833 -3.018,0 -0.833,0.833 -0.833,2.185 0,3.018 11.038,11.037 18.281,14.8 26.923,32.503 0.309,0.634 0.892,1.046 1.537,1.164 0.172,4.733 0.002,20.801 -1.271,30.1 -0.283,2.061 -0.913,4.258 -1.172,5.107 -0.58,0.182 -1.078,0.607 -1.331,1.21 -0.456,1.086 0.056,2.338 1.142,2.794 0.073,0.031 0.147,0.059 0.22,0.084 -0.813,1.495 -1.601,2.997 -2.357,4.51 -0.276,0.551 -0.29,1.166 -0.09,1.702 -0.279,0.567 -0.304,1.253 -0.009,1.866 0.511,1.062 1.787,1.509 2.849,0.998 0.414,-0.199 2.131,-1.708 4.564,-4.149 2.291,-2.299 5.37,-5.468 8.743,-8.942 0.198,0.056 0.407,0.084 0.623,0.08 0.099,-0.002 0.659,-0.069 1.475,-0.482 2.897,-1.468 15.971,-8.786 16.287,-8.976 2.677,-1.606 5.304,-4.38 7.979,-6.962 2.263,-2.184 4.53,-4.267 7.03,-4.892 1.143,-0.285 1.839,-1.445 1.553,-2.588 -0.286,-1.142 -1.445,-1.838 -2.588,-1.553 -2.563,0.641 -5.015,2.354 -7.364,4.468 -2.998,2.7 -5.843,6.089 -8.806,7.867 -0.164,0.098 -3.811,2.143 -7.642,4.267 6.753,-6.882 13.117,-13.194 15.632,-14.965 2.86,-2.012 5.145,-4.244 7.567,-6.211 2.164,-1.756 4.443,-3.293 7.502,-4.127 1.137,-0.31 1.808,-1.484 1.498,-2.62 -0.31,-1.137 -1.484,-1.808 -2.621,-1.498 -3.688,1.006 -6.46,2.814 -9.069,4.932 -2.35,1.908 -4.559,4.081 -7.333,6.034 -1.739,1.224 -5.294,4.579 -9.555,8.799 1.616,-4.383 3.177,-8.831 3.676,-9.751 0.561,-1.035 0.175,-2.332 -0.86,-2.893 -1.036,-0.561 -2.332,-0.175 -2.893,0.86 -0.928,1.714 -5.539,15.66 -7.326,18.654 -0.444,0.336 -0.755,0.843 -0.829,1.429 -3.977,4.057 -7.976,8.183 -11.33,11.615 4.196,-7.285 8.785,-14.441 12.832,-21.801 5.847,-10.631 10.566,-21.685 11.558,-34.094 0.729,-9.103 -1.272,-18.129 -3.312,-27.162 -1.945,-8.612 -3.928,-17.231 -3.257,-25.953 0.186,-2.423 1.98,-6.796 4.387,-11.873 5.304,-11.19 13.736,-25.525 16.896,-30.419 0.246,0.015 0.499,-0.014 0.749,-0.09 3.031,-0.928 6.004,-1.933 8.924,-3.011 31.026,-10.031 66.304,-16.906 104.647,-21.508 0.421,3.269 1.668,6.457 3.878,9.235 1.681,2.113 5.39,5.036 9.167,6.751 2.791,1.267 5.628,1.829 7.813,1.282 0.665,-0.167 1.115,-0.553 1.406,-1.098 0.147,-0.277 0.26,-0.625 0.261,-1.051 0.001,-0.212 -0.03,-0.49 -0.131,-0.805 -0.062,-0.192 -0.254,-0.62 -0.343,-0.814 -0.165,-0.847 -0.839,-1.545 -1.74,-1.697 -1.022,-0.172 -1.999,0.414 -2.351,1.35 -0.994,-0.165 -2.071,-0.563 -3.151,-1.054 -3.114,-1.413 -6.205,-3.779 -7.591,-5.521 -0.769,-0.967 -1.389,-1.996 -1.869,-3.065 2.424,0.886 5.413,1.352 7.839,1.795 2.055,0.375 4.084,0.914 5.315,0.824 1.385,-0.102 2.271,-0.744 2.74,-1.698 0.519,-1.057 0.083,-2.337 -0.974,-2.857 -0.772,-0.379 -1.662,-0.249 -2.288,0.26 -0.649,-0.117 -2.663,-0.479 -4.027,-0.728 -2.144,-0.391 -4.788,-0.765 -6.946,-1.53 -0.712,-0.252 -1.364,-0.543 -1.896,-0.914 -0.483,-0.337 -0.869,-0.727 -0.932,-1.293 l -0.003,-0.028 -0.004,-0.027 -0.003,-0.027 -0.005,-0.027 -0.004,-0.027 -0.005,-0.027 -0.005,-0.027 -0.006,-0.026 -0.006,-0.026 -0.006,-0.027 -0.006,-0.026 -0.007,-0.026 -0.007,-0.025 -0.007,-0.026 -0.008,-0.026 -0.008,-0.025 -0.008,-0.025 -0.009,-0.025 -0.009,-0.025 -0.007,-0.019 c 0.031,-1.065 0.166,-2.127 0.398,-3.168 3.441,-1.18 7.111,-2.501 10.536,-2.352 0.493,0.022 0.969,0.471 1.472,0.788 0.72,0.454 1.427,0.862 2.052,1.062 1.434,0.46 2.665,0.214 3.651,-1.043 0.726,-0.926 0.564,-2.269 -0.363,-2.996 -0.684,-0.536 -1.593,-0.588 -2.315,-0.206 -0.261,-0.144 -0.622,-0.348 -0.869,-0.503 -1.125,-0.708 -2.346,-1.318 -3.443,-1.366 -2.805,-0.122 -5.768,0.562 -8.671,1.452 1.611,-2.712 3.951,-4.978 6.819,-6.337 0.931,-0.442 1.962,-0.344 2.989,-0.19 1.504,0.224 3.013,0.628 4.39,0.733 1.174,0.09 2.2,-0.791 2.29,-1.965 0.09,-1.175 -0.79,-2.201 -1.965,-2.291 -1.588,-0.121 -3.358,-0.67 -5.087,-0.819 -1.538,-0.133 -3.046,0.011 -4.446,0.675 -6.628,3.143 -10.985,10.118 -11.587,17.383 -28.309,3.384 -54.96,8 -79.488,14.188 24.535,-13.742 45.272,-32.515 65.227,-52.33 1.912,3.574 4.956,6.54 9.029,8.125 2.314,0.9 6.613,1.508 10.407,1.121 2.827,-0.288 5.359,-1.171 6.854,-2.63 0.49,-0.477 0.684,-1.036 0.66,-1.652 -0.011,-0.313 -0.089,-0.668 -0.301,-1.035 -0.105,-0.18 -0.268,-0.402 -0.51,-0.619 -0.136,-0.122 -0.479,-0.368 -0.642,-0.484 -0.571,-0.637 -1.496,-0.894 -2.344,-0.574 -0.92,0.347 -1.46,1.262 -1.372,2.196 -0.814,0.289 -1.777,0.45 -2.778,0.552 -3.07,0.313 -6.554,-0.125 -8.426,-0.853 -0.889,-0.346 -1.713,-0.777 -2.471,-1.28 2.207,-0.458 4.597,-1.388 6.586,-2.107 1.808,-0.655 3.67,-1.171 4.607,-1.813 1.11,-0.762 1.533,-1.736 1.46,-2.764 -0.084,-1.175 -1.105,-2.061 -2.28,-1.978 -0.829,0.059 -1.514,0.585 -1.816,1.302 l -3.424,1.239 c -1.859,0.673 -4.103,1.589 -6.144,1.976 -0.658,0.125 -1.289,0.194 -1.863,0.147 -0.477,-0.039 -0.914,-0.142 -1.191,-0.515 -0.101,-0.137 -0.217,-0.259 -0.342,-0.364 -0.433,-0.8 -0.791,-1.64 -1.074,-2.506 2.133,-2.47 4.378,-5.138 7.096,-6.567 0.373,-0.197 0.919,-0.052 1.427,-0.034 0.793,0.028 1.554,0.023 2.151,-0.11 1.424,-0.315 2.331,-1.123 2.543,-2.655 0.161,-1.167 -0.655,-2.245 -1.822,-2.406 -0.82,-0.114 -1.596,0.256 -2.04,0.89 -0.454,-0.004 -1.195,-0.009 -1.676,-0.004 -0.959,0.009 -1.862,0.169 -2.57,0.541 -2.149,1.13 -4.08,2.892 -5.877,4.803 0.107,-2.673 0.899,-5.306 2.419,-7.527 0.509,-0.744 1.337,-1.116 2.181,-1.453 1.292,-0.516 2.671,-0.892 3.807,-1.443 1.06,-0.514 1.503,-1.791 0.989,-2.851 -0.513,-1.06 -1.791,-1.503 -2.851,-0.99 -1.306,0.634 -2.951,1.014 -4.381,1.689 -1.303,0.616 -2.45,1.443 -3.267,2.637 -3.101,4.53 -3.835,10.377 -2.449,15.661 -25.844,25.762 -52.86,49.971 -87.958,63.471 10.606,-9.001 18.186,-19.478 25.228,-31.246 8.988,-15.018 17.097,-32.167 29.761,-51.002 3.583,1.869 7.713,2.706 12.015,2.027 2.755,-0.435 7.271,-2.281 10.735,-4.803 2.552,-1.858 4.499,-4.112 5.117,-6.348 0.183,-0.661 0.069,-1.244 -0.262,-1.766 -0.169,-0.266 -0.417,-0.535 -0.787,-0.747 -0.185,-0.105 -0.445,-0.216 -0.77,-0.284 -0.205,-0.042 -0.692,-0.088 -0.91,-0.106 -0.821,-0.279 -1.764,-0.037 -2.342,0.675 -0.668,0.821 -0.624,1.99 0.055,2.757 -0.663,0.836 -1.593,1.626 -2.613,2.368 -2.876,2.094 -6.601,3.677 -8.888,4.038 -1.334,0.21 -2.646,0.237 -3.919,0.102 2.084,-1.734 4.079,-4.256 5.752,-6.259 1.382,-1.655 2.901,-3.203 3.446,-4.355 0.602,-1.27 0.481,-2.371 -0.125,-3.26 -0.664,-0.973 -1.993,-1.224 -2.966,-0.561 -0.719,0.491 -1.044,1.345 -0.896,2.151 -0.424,0.511 -1.802,2.171 -2.735,3.289 -1.45,1.736 -3.141,3.932 -4.936,5.49 -0.596,0.518 -1.198,0.961 -1.81,1.254 -0.571,0.273 -1.141,0.423 -1.705,0.181 -0.171,-0.074 -0.347,-0.123 -0.522,-0.15 -0.967,-0.584 -1.875,-1.264 -2.713,-2.024 0.699,-3.727 1.383,-7.738 3.279,-10.768 0.277,-0.443 0.936,-0.653 1.491,-0.952 0.771,-0.414 1.494,-0.838 1.99,-1.296 1.121,-1.035 1.521,-2.241 0.905,-3.738 -0.448,-1.089 -1.697,-1.609 -2.786,-1.161 -0.817,0.336 -1.314,1.122 -1.322,1.954 -0.268,0.165 -0.657,0.4 -0.936,0.551 -1.2,0.646 -2.364,1.425 -2.961,2.379 -1.571,2.512 -2.469,5.599 -3.152,8.727 -1.695,-2.891 -2.586,-6.237 -2.341,-9.598 0.078,-1.08 0.699,-1.974 1.371,-2.834 0.97,-1.24 2.103,-2.393 2.9,-3.579 0.657,-0.977 0.397,-2.304 -0.581,-2.961 -0.977,-0.657 -2.304,-0.397 -2.961,0.58 -0.745,1.108 -1.816,2.173 -2.721,3.331 -1.202,1.538 -2.125,3.222 -2.265,5.153 -0.507,6.963 2.894,13.85 8.3,18.203 z M 301.43,388.628 c -0.698,-5.225 -1.663,-10.488 -1.753,-11.03 -0.194,-1.162 -1.295,-1.948 -2.456,-1.754 -1.162,0.194 -1.948,1.294 -1.755,2.456 0.126,0.753 2.028,10.947 2.368,16.88 0.046,0.804 0.015,1.756 -0.015,2.351 -0.088,0.174 -0.175,0.347 -0.264,0.519 -0.13,0.176 -0.234,0.373 -0.305,0.586 -0.69,1.307 -1.428,2.588 -2.213,3.841 -0.358,0.572 -0.772,1.465 -1.232,2.5 -0.316,0.343 -0.518,0.788 -0.558,1.269 -0.538,1.219 -1.125,2.525 -1.75,3.689 -0.391,0.728 -0.793,1.394 -1.218,1.902 -0.177,0.213 -0.298,0.434 -0.487,0.485 -1.137,0.309 -1.809,1.482 -1.501,2.619 0.309,1.137 1.482,1.809 2.619,1.501 1.19,-0.323 2.47,-1.43 3.551,-3.12 0.983,-1.538 1.886,-3.609 2.67,-5.401 0.535,-0.371 1.249,-1.022 2.062,-1.895 4.034,-4.323 11.477,-14.894 12.83,-16.038 5.364,-4.539 11.564,-7.852 16.771,-12.648 0.866,-0.798 0.922,-2.149 0.124,-3.016 -0.798,-0.866 -2.149,-0.922 -3.016,-0.124 -5.162,4.755 -11.318,8.03 -16.636,12.53 -0.609,0.515 -2.429,2.873 -4.631,5.739 2.689,-7.429 4.011,-15.345 3.785,-23.296 -0.034,-1.177 -1.017,-2.106 -2.194,-2.072 -1.177,0.033 -2.106,1.016 -2.073,2.193 0.187,6.569 -0.761,13.112 -2.723,19.334 z"
           style="fill:#04b345"
           id="path915" />
        <g
           transform="translate(9.63543,-16.3216)"
           id="g933">
          <g
             transform="matrix(0.603424,0,0,0.5378,94.7317,92.0293)"
             id="g919">
            <ellipse
               cx="217.608"
               cy="266.332"
               rx="9.2390003"
               ry="10.128"
               style="fill:#ffd800"
               id="ellipse917" />
          </g>
          <g
             transform="matrix(0.603424,0,0,0.5378,108.721,85.2951)"
             id="g923">
            <ellipse
               cx="217.608"
               cy="266.332"
               rx="9.2390003"
               ry="10.128"
               style="fill:#ffd800"
               id="ellipse921" />
          </g>
          <g
             transform="matrix(0.603424,0,0,0.5378,122.711,78.561)"
             id="g927">
            <ellipse
               cx="217.608"
               cy="266.332"
               rx="9.2390003"
               ry="10.128"
               style="fill:#ffd800"
               id="ellipse925" />
          </g>
          <g
             transform="matrix(0.603424,0,0,0.5378,137.788,69.0096)"
             id="g931">
            <ellipse
               cx="217.608"
               cy="266.332"
               rx="9.2390003"
               ry="10.128"
               style="fill:#ffd800"
               id="ellipse929" />
          </g>
        </g>
        <g
           transform="matrix(0.760117,0.443018,-0.443018,0.760117,232.081,-97.6873)"
           id="g951">
          <g
             transform="matrix(0.603424,0,0,0.5378,94.7317,92.0293)"
             id="g937">
            <ellipse
               cx="217.608"
               cy="266.332"
               rx="9.2390003"
               ry="10.128"
               style="fill:#ffd800"
               id="ellipse935" />
          </g>
          <g
             transform="matrix(0.603424,0,0,0.5378,108.721,85.2951)"
             id="g941">
            <ellipse
               cx="217.608"
               cy="266.332"
               rx="9.2390003"
               ry="10.128"
               style="fill:#ffd800"
               id="ellipse939" />
          </g>
          <g
             transform="matrix(0.603424,0,0,0.5378,122.711,78.561)"
             id="g945">
            <ellipse
               cx="217.608"
               cy="266.332"
               rx="9.2390003"
               ry="10.128"
               style="fill:#ffd800"
               id="ellipse943" />
          </g>
          <g
             transform="matrix(0.603424,0,0,0.5378,137.788,69.0096)"
             id="g949">
            <ellipse
               cx="217.608"
               cy="266.332"
               rx="9.2390003"
               ry="10.128"
               style="fill:#ffd800"
               id="ellipse947" />
          </g>
        </g>
        <g
           transform="matrix(0.381512,0.673491,-0.673491,0.381512,437.212,-60.9874)"
           id="g969">
          <g
             transform="matrix(0.603424,0,0,0.5378,94.7317,92.0293)"
             id="g955">
            <ellipse
               cx="217.608"
               cy="266.332"
               rx="9.2390003"
               ry="10.128"
               style="fill:#ffd800"
               id="ellipse953" />
          </g>
          <g
             transform="matrix(0.603424,0,0,0.5378,108.721,85.2951)"
             id="g959">
            <ellipse
               cx="217.608"
               cy="266.332"
               rx="9.2390003"
               ry="10.128"
               style="fill:#ffd800"
               id="ellipse957" />
          </g>
          <g
             transform="matrix(0.603424,0,0,0.5378,122.711,78.561)"
             id="g963">
            <ellipse
               cx="217.608"
               cy="266.332"
               rx="9.2390003"
               ry="10.128"
               style="fill:#ffd800"
               id="ellipse961" />
          </g>
          <g
             transform="matrix(0.603424,0,0,0.5378,137.788,69.0096)"
             id="g967">
            <ellipse
               cx="217.608"
               cy="266.332"
               rx="9.2390003"
               ry="10.128"
               style="fill:#ffd800"
               id="ellipse965" />
          </g>
        </g>
        <g
           transform="matrix(-0.00837499,0.680949,-0.680949,-0.00837499,576.876,57.7855)"
           id="g987">
          <g
             transform="matrix(0.603424,0,0,0.5378,94.7317,92.0293)"
             id="g973">
            <ellipse
               cx="217.608"
               cy="266.332"
               rx="9.2390003"
               ry="10.128"
               style="fill:#ffd800"
               id="ellipse971" />
          </g>
          <g
             transform="matrix(0.603424,0,0,0.5378,108.721,85.2951)"
             id="g977">
            <ellipse
               cx="217.608"
               cy="266.332"
               rx="9.2390003"
               ry="10.128"
               style="fill:#ffd800"
               id="ellipse975" />
          </g>
          <g
             transform="matrix(0.603424,0,0,0.5378,122.711,78.561)"
             id="g981">
            <ellipse
               cx="217.608"
               cy="266.332"
               rx="9.2390003"
               ry="10.128"
               style="fill:#ffd800"
               id="ellipse979" />
          </g>
          <g
             transform="matrix(0.603424,0,0,0.5378,137.788,69.0096)"
             id="g985">
            <ellipse
               cx="217.608"
               cy="266.332"
               rx="9.2390003"
               ry="10.128"
               style="fill:#ffd800"
               id="ellipse983" />
          </g>
        </g>
        <g
           transform="matrix(-0.384067,0.640725,-0.640725,-0.384067,678.842,200.957)"
           id="g1005">
          <g
             transform="matrix(0.603424,0,0,0.5378,94.7317,92.0293)"
             id="g991">
            <ellipse
               cx="217.608"
               cy="266.332"
               rx="9.2390003"
               ry="10.128"
               style="fill:#ffd800"
               id="ellipse989" />
          </g>
          <g
             transform="matrix(0.603424,0,0,0.5378,108.721,85.2951)"
             id="g995">
            <ellipse
               cx="217.608"
               cy="266.332"
               rx="9.2390003"
               ry="10.128"
               style="fill:#ffd800"
               id="ellipse993" />
          </g>
          <g
             transform="matrix(0.603424,0,0,0.5378,122.711,78.561)"
             id="g999">
            <ellipse
               cx="217.608"
               cy="266.332"
               rx="9.2390003"
               ry="10.128"
               style="fill:#ffd800"
               id="ellipse997" />
          </g>
          <g
             transform="matrix(0.603424,0,0,0.5378,137.788,69.0096)"
             id="g1003">
            <ellipse
               cx="217.608"
               cy="266.332"
               rx="9.2390003"
               ry="10.128"
               style="fill:#ffd800"
               id="ellipse1001" />
          </g>
        </g>
      </g>
    </g>
  </g>
</svg>
