<?xml version="1.0" encoding="UTF-8" standalone="no"?>
<!-- Created with Inkscape (http://www.inkscape.org/) -->

<svg
   width="16.119474mm"
   height="16.11824mm"
   viewBox="0 0 26.119474 26.11824"
   version="1.1"
   id="svg1421"
   inkscape:version="1.1.1 (3bf5ae0d25, 2021-09-20)"
   sodipodi:docname="2022-CH-04_copper.svg"
   xmlns:inkscape="http://www.inkscape.org/namespaces/inkscape"
   xmlns:sodipodi="http://sodipodi.sourceforge.net/DTD/sodipodi-0.dtd"
   xmlns="http://www.w3.org/2000/svg"
   xmlns:svg="http://www.w3.org/2000/svg"
   xmlns:serif="http://www.serif.com/">
  <sodipodi:namedview
     id="namedview1423"
     pagecolor="#ffffff"
     bordercolor="#666666"
     borderopacity="1.0"
     inkscape:pageshadow="2"
     inkscape:pageopacity="0.0"
     inkscape:pagecheckerboard="0"
     inkscape:document-units="mm"
     showgrid="false"
     fit-margin-top="0"
     fit-margin-left="0"
     fit-margin-right="0"
     fit-margin-bottom="0"
     inkscape:zoom="0.66368547"
     inkscape:cx="387.98499"
     inkscape:cy="555.23289"
     inkscape:window-width="1920"
     inkscape:window-height="1137"
     inkscape:window-x="-8"
     inkscape:window-y="-8"
     inkscape:window-maximized="1"
     inkscape:current-layer="layer1" />
  <defs
     id="defs1418" />
  <g
     inkscape:label="Ebene 1"
     inkscape:groupmode="layer"
     id="layer1"
     transform="translate(-2.4322281,-1.5781993)">
    <g
       transform="matrix(0.26458333,0,0,0.26458333,-75.424891,-76.279833)"
       id="g484"
       style="clip-rule:evenodd;fill-rule:evenodd;stroke-linecap:round;stroke-linejoin:round">
      <g
         id="path5168-1-1-3-1-6-7-6-7-83"
         serif:id="path5168-1-1-3-1-6-7-6-7-8"
         transform="matrix(0.466427,0,0,0.466427,939.341,-245.632)">
        <path
           d="m -1277.19,1161.52 v 0 c -55.86,0 -101.83,45.96 -101.83,101.82 v 0 c 0,55.86 45.97,101.82 101.83,101.82 v 0 c 55.86,0 101.82,-45.96 101.82,-101.82 v 0 c 0,-55.86 -45.96,-101.82 -101.82,-101.82 z"
           style="fill:#a4671a;fill-rule:nonzero;stroke:#c1791e;stroke-width:8px"
           id="path471" />
      </g>
      <g
         id="path5164-1-3-8-1-5-0-0-6-13"
         serif:id="path5164-1-3-8-1-5-0-0-6-1"
         transform="matrix(0.107727,0,0,0.107727,299.246,301.037)">
        <path
           d="m 409.468,39.475 v 0 c -197.925,0 -360.792,162.867 -360.792,360.791 v 10e-4 c 0,197.924 162.867,360.791 360.792,360.791 v 0 c 197.924,0 360.792,-162.867 360.792,-360.791 v -10e-4 C 770.26,202.342 607.392,39.475 409.468,39.475 Z"
           style="fill:#c1791e;fill-rule:nonzero;stroke:#8b5816;stroke-width:34.64px"
           id="path474" />
      </g>
      <g
         transform="matrix(3.47139,0,0,3.47139,-1097.41,-425.812)"
         id="g479">
        <path
           d="m 416.97,220.573 c 0.649,0.273 1.203,0.625 1.664,1.054 0.461,0.43 0.813,0.938 1.055,1.524 0.242,0.586 0.363,1.207 0.363,1.863 0,0.984 -0.259,1.885 -0.779,2.701 -0.519,0.817 -1.23,1.461 -2.133,1.934 -0.902,0.472 -1.896,0.709 -2.982,0.709 -1.242,0 -2.274,-0.264 -3.094,-0.791 -0.82,-0.528 -1.23,-1.19 -1.23,-1.987 0,-0.367 0.109,-0.668 0.328,-0.902 0.219,-0.234 0.508,-0.351 0.867,-0.351 0.422,0 0.719,0.167 0.891,0.503 0.093,0.18 0.179,0.52 0.257,1.02 0.094,0.687 0.307,1.18 0.639,1.477 0.332,0.296 0.842,0.445 1.529,0.445 0.641,0 1.231,-0.156 1.77,-0.469 0.539,-0.312 0.965,-0.74 1.277,-1.283 0.313,-0.543 0.469,-1.135 0.469,-1.776 0,-1.101 -0.451,-2.048 -1.354,-2.841 -0.902,-0.793 -2.212,-1.401 -3.931,-1.823 l 0.012,-0.375 c 0.773,-0.14 1.441,-0.394 2.003,-0.761 0.563,-0.367 0.991,-0.836 1.284,-1.407 0.293,-0.57 0.439,-1.207 0.439,-1.91 0,-0.883 -0.197,-1.603 -0.592,-2.162 -0.394,-0.558 -0.916,-0.838 -1.564,-0.838 -0.524,0 -0.91,0.196 -1.16,0.586 -0.102,0.164 -0.176,0.33 -0.223,0.498 -0.047,0.168 -0.121,0.537 -0.223,1.108 -0.078,0.5 -0.213,0.861 -0.404,1.084 -0.191,0.222 -0.451,0.334 -0.779,0.334 -0.313,0 -0.569,-0.112 -0.768,-0.334 -0.199,-0.223 -0.299,-0.514 -0.299,-0.873 0,-0.532 0.186,-1.018 0.557,-1.459 0.371,-0.442 0.877,-0.789 1.518,-1.043 0.64,-0.254 1.347,-0.381 2.121,-0.381 0.648,0 1.256,0.086 1.822,0.258 0.566,0.172 1.043,0.412 1.43,0.72 0.386,0.309 0.687,0.688 0.902,1.137 0.215,0.449 0.322,0.947 0.322,1.494 0,0.672 -0.166,1.283 -0.498,1.834 -0.332,0.551 -0.834,1.045 -1.506,1.483 z m -4.066,-6.375 c -0.664,0.187 -1.197,0.498 -1.6,0.931 -0.402,0.434 -0.603,0.908 -0.603,1.424 0,0.156 0.039,0.287 0.117,0.393 0.078,0.105 0.184,0.158 0.316,0.158 0.266,0 0.426,-0.199 0.481,-0.598 0.101,-0.617 0.242,-1.082 0.422,-1.394 0.179,-0.313 0.469,-0.618 0.867,-0.914 z m -0.856,15.445 c -0.32,-0.289 -0.552,-0.574 -0.697,-0.856 -0.144,-0.281 -0.228,-0.621 -0.252,-1.019 l -0.023,-0.316 c -0.016,-0.336 -0.145,-0.504 -0.387,-0.504 -0.305,0 -0.457,0.211 -0.457,0.632 0,0.438 0.154,0.832 0.463,1.184 0.309,0.352 0.76,0.645 1.353,0.879 z m 4.7,-0.316 c 1.586,-0.954 2.379,-2.235 2.379,-3.844 0,-2.086 -1.278,-3.621 -3.832,-4.606 1.765,-0.883 2.648,-2.082 2.648,-3.597 0,-0.547 -0.105,-1.047 -0.316,-1.5 -0.211,-0.453 -0.516,-0.819 -0.914,-1.096 -0.399,-0.277 -0.86,-0.443 -1.383,-0.498 0.953,0.555 1.429,1.527 1.429,2.918 0,0.695 -0.125,1.326 -0.375,1.892 -0.25,0.567 -0.621,1.055 -1.113,1.465 -0.492,0.41 -1.082,0.721 -1.769,0.932 1.015,0.297 1.884,0.682 2.607,1.154 0.723,0.473 1.27,1.012 1.641,1.617 0.371,0.606 0.556,1.268 0.556,1.987 0,0.39 -0.049,0.758 -0.146,1.101 -0.098,0.344 -0.244,0.668 -0.44,0.973 -0.125,0.211 -0.449,0.578 -0.972,1.102 z"
           style="fill:#7e4d00;fill-rule:nonzero"
           id="path477" />
      </g>
      <g
         id="path4518-3-4-0-8-9-43"
         serif:id="path4518-3-4-0-8-9-4"
         transform="matrix(0.488104,0,0,0.488104,1461.25,291.011)">
        <path
           d="m -2230.41,30.735 c -2.18,-1.702 -4.43,-3.311 -6.74,-4.822 -2.73,-1.753 -5.55,-3.368 -8.44,-4.839 -2.89,-1.472 -5.85,-2.798 -8.88,-3.974 -3.02,-1.175 -6.1,-2.199 -9.23,-3.067 -3.12,-0.867 -6.29,-1.578 -9.49,-2.129 -0.4,-0.052 -0.81,-0.101 -1.22,-0.148 l -99.99,143.845 c 1.35,2.438 2.81,4.816 4.37,7.129 1.83,2.677 3.79,5.261 5.88,7.742 2.09,2.481 4.31,4.857 6.64,7.117 2.32,2.26 4.76,4.403 7.3,6.419 2.54,2.017 5.18,3.905 7.91,5.658 0.34,0.194 0.67,0.387 1.01,0.577 z"
           style="fill:#ffffff;fill-opacity:0.26;fill-rule:nonzero"
           id="path481" />
      </g>
    </g>
  </g>
</svg>
