<?xml version="1.0" encoding="UTF-8" standalone="no"?>
<!-- Created with Inkscape (http://www.inkscape.org/) -->

<svg
   width="23.28409mm"
   height="27.990395mm"
   viewBox="0 0 23.28409 27.990394"
   version="1.1"
   id="svg2320"
   inkscape:version="1.1.1 (3bf5ae0d25, 2021-09-20)"
   sodipodi:docname="2022-CH-04_basil.svg"
   xmlns:inkscape="http://www.inkscape.org/namespaces/inkscape"
   xmlns:sodipodi="http://sodipodi.sourceforge.net/DTD/sodipodi-0.dtd"
   xmlns="http://www.w3.org/2000/svg"
   xmlns:svg="http://www.w3.org/2000/svg">
  <sodipodi:namedview
     id="namedview2322"
     pagecolor="#ffffff"
     bordercolor="#666666"
     borderopacity="1.0"
     inkscape:pageshadow="2"
     inkscape:pageopacity="0.0"
     inkscape:pagecheckerboard="0"
     inkscape:document-units="mm"
     showgrid="false"
     fit-margin-top="0"
     fit-margin-left="0"
     fit-margin-right="0"
     fit-margin-bottom="0"
     inkscape:zoom="1.3273709"
     inkscape:cx="50.852402"
     inkscape:cy="135.98309"
     inkscape:window-width="1920"
     inkscape:window-height="1137"
     inkscape:window-x="-8"
     inkscape:window-y="-8"
     inkscape:window-maximized="1"
     inkscape:current-layer="layer1" />
  <defs
     id="defs2317" />
  <g
     inkscape:label="Ebene 1"
     inkscape:groupmode="layer"
     id="layer1"
     transform="translate(-82.294324,-80.272428)">
    <g
       transform="matrix(-0.15793044,0,0,0.15793044,170.10108,-110.94226)"
       id="g817"
       style="clip-rule:evenodd;fill-rule:evenodd;stroke-linecap:round;stroke-linejoin:round">
      <path
         d="m 464.728,1277.97 c -0.512,-5.23 -12.13,0.92 -14.917,2.78 -10.986,7.32 -14.637,14.53 -17.981,26.79 -0.873,3.2 -0.329,11.17 0.231,20.83 1.158,19.99 2.386,47.24 -8.694,54.63"
         style="fill:none;stroke:#33c369;stroke-width:9.97px;stroke-miterlimit:1.5"
         id="path799" />
      <path
         d="m 477.454,1264.89 c 6.41,-14.36 -35.119,-37.2 -48.453,-37.2 -7.077,0 -13.074,2.27 -19.514,5.13 -2.474,1.1 -0.116,24.61 7.949,32.13 9.526,8.88 18.734,15.07 29.539,16.15 7.856,0.78 16.269,-1.44 22.595,-5.65 2.092,-1.4 8.276,-10.95 7.884,-10.56 z"
         style="fill:#00ac40"
         id="path801" />
      <path
         d="m 479.618,1269.7 c 2.271,-1.28 -2.24,9.04 -0.291,12.94 4.471,8.94 13.777,16.21 21.89,20.44 11.364,5.93 47.995,-1.5 54.703,-6.02 1.526,-1.03 -24.769,-34.23 -33.97,-36.51 -12.691,-3.13 -24.041,-2.57 -31.325,2.06 -1.475,0.94 -10.303,5.77 -10.12,5.06 z"
         style="fill:#00ac40"
         id="path803" />
      <path
         d="m 483.537,1260.81 c 0,0 5.157,21.25 5.285,26.78 0.315,13.52 0.069,25.16 -11.979,33.82 -5.105,3.67 -11.449,5.29 -17.618,5.29 -2.86,0 -13.648,-0.16 -13.648,-0.16 0,0 1.689,1.69 0,0 -1.929,-1.93 -0.337,-11.01 -0.093,-13.94 0.888,-10.66 8.945,-21.99 12.332,-32.06 2.758,-8.2 7.814,-11.73 15.151,-15.15 1.842,-0.86 12.448,-4.58 10.57,-4.58 z"
         style="fill:#00bf47"
         id="path805" />
      <path
         d="m 482.946,1271.19 c 2.254,0.68 5.665,-2.04 7.679,-2.93 6.206,-2.76 15.207,-11.39 18.421,-19.39 4.62,-11.51 -1.699,-38.24 -1.699,-37.5 0,0 0.556,-0.49 0,0 -1.104,-3.92 -27.433,11.85 -32.731,18.47 -6.051,7.57 -18.231,42.01 1.116,42.01 z"
         style="fill:#00bf47"
         id="path807" />
      <g
         transform="matrix(-0.0289691,-0.490909,0.501235,-0.0295785,-146.532,1541.08)"
         id="g811">
        <path
           d="m 483.537,1260.81 c 0,0 5.157,21.25 5.285,26.78 0.315,13.52 0.069,25.16 -11.979,33.82 -5.105,3.67 -11.449,5.29 -17.618,5.29 -2.86,0 -13.648,-0.16 -13.648,-0.16 0,0 1.77,1.32 0.081,-0.37 -1.929,-1.93 -0.418,-10.64 -0.174,-13.57 0.888,-10.66 8.945,-21.99 12.332,-32.06 2.758,-8.2 7.814,-11.73 15.151,-15.15 1.842,-0.86 12.448,-4.58 10.57,-4.58 z"
           style="fill:#00d04e"
           id="path809" />
      </g>
      <g
         transform="matrix(-0.0289691,-0.490909,0.501235,-0.0295785,-146.532,1541.08)"
         id="g815">
        <path
           d="m 482.946,1271.19 c 2.254,0.68 5.665,-2.04 7.679,-2.93 15.13,-6.73 16.722,-57.63 16.722,-56.89 0,0 0.556,-0.49 0,0 4.684,-3.51 -25.803,8.16 -31.101,14.78 -6.052,7.56 -19.861,45.7 -0.514,45.7 z"
           style="fill:#00d04e"
           id="path813" />
      </g>
    </g>
  </g>
</svg>
