<?xml version="1.0" encoding="iso-8859-1"?>
<!-- Uploaded to: SVG Repo, www.svgrepo.com, Generator: SVG Repo Mixer Tools -->
<svg version="1.1" id="Layer_1" xmlns="http://www.w3.org/2000/svg" xmlns:xlink="http://www.w3.org/1999/xlink" 
	 viewBox="0 0 511.999 511.999" xml:space="preserve">
<polygon style="fill:#FCD577;" points="329.701,402.188 329.701,444.838 357.859,444.838 357.859,484.341 265.369,484.341 
	265.369,362.673 357.859,362.673 357.859,402.188 "/>
<rect x="265.376" y="362.671" style="fill:#EAC36E;" width="27.102" height="121.669"/>
<path style="fill:#FCD577;" d="M369.489,28.247C350.476,10.032,325.495,0,299.148,0h-86.295c-26.348,0-51.329,10.032-70.342,28.247
	c-19.334,18.523-30.245,43.343-30.724,69.889c-0.488,27.026,9.684,52.54,28.643,71.845c18.964,19.309,44.286,29.943,71.301,29.943
	h24.576v312.074h39.384V199.926h24.573c27.016,0,52.339-10.634,71.303-29.943c18.959-19.304,29.132-44.819,28.644-71.845
	C399.734,71.592,388.823,46.77,369.489,28.247z M300.266,163.053h-88.534c-35.173,0-63.715-28.933-63.079-64.25
	c0.624-34.573,29.619-61.93,64.199-61.93h86.295c34.58,0,63.574,27.356,64.199,61.93
	C363.983,134.12,335.439,163.053,300.266,163.053z"/>
</svg>