<?xml version="1.0" encoding="UTF-8" standalone="no"?>
<svg
   version="1.1"
   viewBox="0 0 438.52231 381.85039"
   fill="none"
   stroke="none"
   stroke-linecap="square"
   stroke-miterlimit="10"
   id="svg49"
   sodipodi:docname="2022-SK-04-cipher8.svg"
   width="438.52231"
   height="381.8504"
   inkscape:version="1.1 (c68e22c387, 2021-05-23)"
   xmlns:inkscape="http://www.inkscape.org/namespaces/inkscape"
   xmlns:sodipodi="http://sodipodi.sourceforge.net/DTD/sodipodi-0.dtd"
   xmlns="http://www.w3.org/2000/svg"
   xmlns:svg="http://www.w3.org/2000/svg">
  <defs
     id="defs53" />
  <sodipodi:namedview
     id="namedview51"
     pagecolor="#ffffff"
     bordercolor="#999999"
     borderopacity="1"
     inkscape:pageshadow="0"
     inkscape:pageopacity="0"
     inkscape:pagecheckerboard="0"
     showgrid="false"
     inkscape:zoom="1.0529069"
     inkscape:cx="320.54116"
     inkscape:cy="193.27445"
     inkscape:window-width="1920"
     inkscape:window-height="991"
     inkscape:window-x="-9"
     inkscape:window-y="-9"
     inkscape:window-maximized="1"
     inkscape:current-layer="svg49"
     width="435.52231px" />
  <clipPath
     id="p.0">
    <path
       d="M 0,0 H 435.5223 V 380.8504 H 0 Z"
       clip-rule="nonzero"
       id="path2" />
  </clipPath>
  <g
     clip-path="url(#p.0)"
     id="g47">
    <path
       fill="#000000"
       fill-opacity="0"
       d="m 11.39702,8.5477646 h 435.5223 V 389.39817 H 11.39702 Z"
       fill-rule="evenodd"
       id="path5" />
    <path
       fill="#d9ead3"
       d="M 78.546624,132.96255 162.1425,49.366655 h 118.22556 l 83.59589,83.595895 V 251.1881 l -83.59589,83.59587 H 162.1425 L 78.546624,251.1881 Z"
       fill-rule="evenodd"
       id="path7" />
    <path
       fill="#000000"
       fill-opacity="0"
       d="M 98.958695,14.975587 H 166.10831 V 56.991334 H 98.958695 Z"
       fill-rule="evenodd"
       id="path9" />
    <path
       fill="#000000"
       d="M 103.6242,37.686524 94.832015,14.975587 h 3.267188 l 5.896877,16.495312 q 0.71718,1.992188 1.19531,3.71875 0.53125,-1.859375 1.22187,-3.71875 l 6.13594,-16.495312 h 3.0547 l -8.89845,22.710937 z m 18.63064,0 -6.00312,-22.710937 h 3.08125 l 3.45312,14.901562 q 0.55782,2.3375 0.95625,4.621875 0.85,-3.639062 1.00938,-4.196875 l 4.32969,-15.326562 h 3.6125 l 3.26718,11.501562 q 1.22188,4.276563 1.75313,8.021875 0.45156,-2.151562 1.14219,-4.914062 l 3.55937,-14.609375 h 3.02813 l -6.24219,22.710937 h -2.89531 l -4.78125,-17.292187 q -0.61094,-2.178125 -0.71719,-2.65625 -0.34531,1.540625 -0.66406,2.65625 l -4.80782,17.292187 z m 23.66597,0 8.79219,-11.820312 -7.75625,-10.890625 h 3.58594 l 4.11719,5.84375 q 1.275,1.80625 1.83281,2.7625 0.74375,-1.221875 1.77969,-2.576563 l 4.56875,-6.029687 h 3.26718 l -7.96875,10.704687 8.60625,12.00625 h -3.71875 l -5.71093,-8.101562 q -0.47813,-0.690625 -1.00938,-1.514063 -0.74375,1.248438 -1.0625,1.7 l -5.71094,7.915625 z"
       fill-rule="nonzero"
       id="path11"
       style="stroke-width:1.7" />
    <path
       fill="#000000"
       fill-opacity="0"
       d="m 276.66738,8.5477646 h 59.27557 V 50.563512 h -59.27557 z"
       fill-rule="evenodd"
       id="path13" />
    <path
       fill="#000000"
       d="m 272.45765,40.138075 8.7125,-22.710937 h 3.24063 l 9.29687,22.710937 h -3.42656 l -2.62969,-6.879687 h -9.50937 l -2.49688,6.879687 z m 6.56094,-9.323437 h 7.70312 l -2.39062,-6.295312 q -1.0625,-2.868751 -1.59375,-4.701563 -0.45156,2.178125 -1.22188,4.329687 z m 16.9572,9.323437 V 17.427138 h 8.52656 q 2.60312,0 4.17031,0.690625 1.56719,0.690625 2.44375,2.125 0.90313,1.434375 0.90313,3.001562 0,1.460938 -0.79688,2.7625 -0.77031,1.275 -2.36406,2.045313 2.04531,0.610937 3.16094,2.071875 1.11562,1.460937 1.11562,3.426562 0,1.59375 -0.69062,2.975 -0.66407,1.354688 -1.67344,2.098438 -0.98281,0.74375 -2.47031,1.142187 -1.4875,0.371875 -3.66563,0.371875 z m 3.02812,-13.175 h 4.8875 q 2.01875,0 2.86875,-0.239062 1.14219,-0.345313 1.72656,-1.142187 0.58438,-0.796875 0.58438,-1.992188 0,-1.115625 -0.55781,-1.965625 -0.53125,-0.876563 -1.54063,-1.195313 -1.00937,-0.318749 -3.45312,-0.318749 h -4.51563 z m 0,10.492188 h 5.63125 q 1.46094,0 2.04531,-0.10625 1.03594,-0.185938 1.72657,-0.610937 0.71718,-0.451563 1.16875,-1.275001 0.45156,-0.823437 0.45156,-1.9125 0,-1.275 -0.66406,-2.204687 -0.6375,-0.929688 -1.80625,-1.301563 -1.14219,-0.398437 -3.32032,-0.398437 h -5.23281 z m 34.46189,-5.285938 3.00156,0.770313 q -0.95625,3.692187 -3.4,5.657813 -2.44375,1.939062 -6.00312,1.939062 -3.66563,0 -5.97657,-1.4875 -2.28437,-1.514062 -3.50625,-4.329688 -1.19531,-2.842187 -1.19531,-6.109375 0,-3.532812 1.35469,-6.1625 1.35469,-2.65625 3.85156,-4.010937 2.52344,-1.38125 5.525,-1.38125 3.4,0 5.71094,1.726563 2.3375,1.726562 3.24062,4.887499 l -2.94843,0.690626 q -0.79688,-2.470313 -2.31094,-3.585938 -1.4875,-1.142188 -3.74531,-1.142188 -2.62969,0 -4.38282,1.248438 -1.75312,1.248438 -2.47031,3.373438 -0.71719,2.098437 -0.71719,4.356249 0,2.895313 0.85,5.046875 0.85,2.151563 2.62969,3.240625 1.77969,1.0625 3.85156,1.0625 2.52344,0 4.27657,-1.460937 1.75312,-1.460938 2.36406,-4.329688 z"
       fill-rule="nonzero"
       id="path15"
       style="stroke-width:1.7" />
    <path
       fill="#000000"
       fill-opacity="0"
       d="m 363.96395,107.4769 h 59.2756 v 42.01575 h -59.2756 z"
       fill-rule="evenodd"
       id="path17" />
    <path
       fill="#000000"
       d="m 369.74759,139.69415 v -22.71094 h 7.83594 q 2.62969,0 4.0375,0.34532 1.93906,0.425 3.32031,1.62031 1.80625,1.51406 2.68281,3.87812 0.90313,2.36407 0.90313,5.39219 0,2.57656 -0.61094,4.59531 -0.61094,1.99219 -1.56719,3.29375 -0.92968,1.30157 -2.04531,2.07188 -1.11562,0.74375 -2.70937,1.14219 -1.59375,0.37187 -3.63907,0.37187 z m 3.00156,-2.68281 h 4.86094 q 2.23125,0 3.50625,-0.39844 1.275,-0.425 2.04531,-1.19531 1.0625,-1.0625 1.64688,-2.86875 0.61094,-1.80625 0.61094,-4.38281 0,-3.55938 -1.16875,-5.47188 -1.16875,-1.9125 -2.84219,-2.55 -1.19531,-0.47812 -3.87813,-0.47812 h -4.78125 z m 19.9556,2.68281 v -22.71094 h 16.41563 v 2.68282 h -13.3875 v 6.95937 h 12.5375 v 2.65625 h -12.5375 v 7.72969 h 13.91875 v 2.68281 z m 21.26032,0 v -22.71094 h 15.32657 v 2.68282 h -12.325 v 7.03906 h 10.65156 v 2.68281 h -10.65156 v 10.30625 z"
       fill-rule="nonzero"
       id="path19"
       style="stroke-width:1.7" />
    <path
       fill="#000000"
       fill-opacity="0"
       d="m 363.96395,236.09895 h 59.2756 v 42.01575 h -59.2756 z"
       fill-rule="evenodd"
       id="path21" />
    <path
       fill="#000000"
       d="m 382.49862,258.55338 v -2.68281 h 9.61562 v 8.42031 q -2.20468,1.77969 -4.56875,2.68281 -2.3375,0.87656 -4.83437,0.87656 -3.34688,0 -6.08281,-1.43437 -2.73594,-1.43438 -4.11719,-4.14375 -1.38125,-2.70937 -1.38125,-6.05625 0,-3.32031 1.38125,-6.18906 1.38125,-2.86875 3.98437,-4.25 2.60313,-1.40782 5.97657,-1.40782 2.47031,0 4.4625,0.79688 1.99218,0.79687 3.10781,2.23125 1.14219,1.40781 1.72656,3.69219 l -2.70937,0.74375 q -0.50469,-1.72657 -1.275,-2.70938 -0.74375,-1.00937 -2.15157,-1.59375 -1.40781,-0.58437 -3.13437,-0.58437 -2.04531,0 -3.55938,0.6375 -1.51406,0.61094 -2.44375,1.64687 -0.90312,1.00938 -1.40781,2.23125 -0.87656,2.09844 -0.87656,4.56875 0,3.02813 1.03594,5.07344 1.0625,2.04531 3.05468,3.05469 1.99219,0.98281 4.25,0.98281 1.93907,0 3.79844,-0.74375 1.85938,-0.77031 2.81563,-1.62031 v -4.22344 z m 14.1507,8.89844 v -22.71094 h 3.00157 v 9.32344 h 11.79375 v -9.32344 h 3.00156 v 22.71094 h -3.00156 v -10.70469 h -11.79375 v 10.70469 z m 23.30242,0 v -22.71094 h 3.00157 v 22.71094 z"
       fill-rule="nonzero"
       id="path23"
       style="stroke-width:1.7" />
    <path
       fill="#000000"
       fill-opacity="0"
       d="m 259.98757,334.78397 h 67.1496 v 42.01578 h -67.1496 z"
       fill-rule="evenodd"
       id="path25" />
    <path
       fill="#000000"
       d="m 254.63451,359.84305 2.70937,-0.37188 q 0.13281,2.60313 0.98281,3.58594 0.87657,0.95625 2.41719,0.95625 1.11563,0 1.93906,-0.50469 0.82344,-0.53125 1.11563,-1.40781 0.31875,-0.90312 0.31875,-2.86875 V 343.5868 h 3.00156 v 15.48594 q 0,2.84218 -0.69062,4.40937 -0.69063,1.56719 -2.17813,2.39063 -1.4875,0.82343 -3.50625,0.82343 -2.975,0 -4.56875,-1.72656 -1.59375,-1.72656 -1.54062,-5.12656 z m 17.26562,6.45468 V 343.5868 h 3.02813 v 11.2625 l 11.2625,-11.2625 h 4.06406 l -9.50938,9.21718 9.93438,13.49375 h -3.95781 l -8.10157,-11.50156 -3.69218,3.63907 v 7.86249 z m 21.15408,0 V 343.5868 h 3.02812 v 20.02812 h 11.15625 v 2.68281 z m 21.81787,0 v -9.61562 l -8.76562,-13.09531 h 3.66562 l 4.48906,6.85312 q 1.22188,1.9125 2.28438,3.85157 1.03594,-1.77969 2.49687,-4.01094 l 4.38282,-6.69375 h 3.50625 l -9.05782,13.09531 v 9.61562 z"
       fill-rule="nonzero"
       id="path27"
       style="stroke-width:1.7" />
    <path
       fill="#000000"
       fill-opacity="0"
       d="m 111.47839,334.78397 h 79.21259 v 42.01578 h -79.21259 z"
       fill-rule="evenodd"
       id="path29" />
    <path
       fill="#000000"
       d="m 103.29379,366.37977 v -22.71094 h 4.51563 l 5.36562,16.07032 q 0.74375,2.25781 1.08907,3.37343 0.39843,-1.24843 1.19531,-3.63906 l 5.44531,-15.80469 h 4.0375 v 22.71094 h -2.89531 v -18.99219 l -6.5875,18.99219 h -2.70938 l -6.56094,-19.3375 v 19.3375 z m 26.47249,0 v -22.71094 h 3.08125 l 11.92655,17.82344 v -17.82344 h 2.86875 v 22.71094 h -3.08125 l -11.92655,-17.85 v 17.85 z m 22.02744,-11.05 q 0,-5.65781 3.02812,-8.84531 3.02813,-3.21406 7.83594,-3.21406 3.13437,0 5.65781,1.51406 2.52344,1.4875 3.85156,4.19687 1.32813,2.68282 1.32813,6.08282 0,3.45312 -1.40781,6.18906 -1.38125,2.70937 -3.93125,4.11719 -2.55,1.40781 -5.525,1.40781 -3.1875,0 -5.71094,-1.54063 -2.52344,-1.56718 -3.825,-4.25 -1.30156,-2.68281 -1.30156,-5.65781 z m 3.08125,0.0266 q 0,4.11719 2.20468,6.48125 2.20469,2.36407 5.55157,2.36407 3.4,0 5.57812,-2.39063 2.17813,-2.39062 2.17813,-6.77344 0,-2.7625 -0.92969,-4.83437 -0.92969,-2.07188 -2.73594,-3.1875 -1.80625,-1.14219 -4.0375,-1.14219 -3.21406,0 -5.525,2.20469 -2.28437,2.17812 -2.28437,7.27812 z m 20.68505,11.0234 v -2.78906 l 11.63438,-14.52969 q 1.22187,-1.56719 2.3375,-2.70937 h -12.67032 v -2.68282 h 16.28282 v 2.68282 l -12.75,15.75156 -1.38125,1.59375 h 14.50312 v 2.68281 z"
       fill-rule="nonzero"
       id="path31"
       style="stroke-width:1.7" />
    <path
       fill="#000000"
       fill-opacity="0"
       d="m 11.39702,247.21969 h 67.149604 v 42.01573 H 11.39702 Z"
       fill-rule="evenodd"
       id="path33" />
    <path
       fill="#000000"
       d="M 8.2713627,278.53656 V 255.82563 H 16.85105 q 2.257812,0 3.453125,0.2125 1.646875,0.29218 2.789062,1.08906 1.142188,0.77031 1.832813,2.17812 0.690625,1.40782 0.690625,3.10782 0,2.89531 -1.859375,4.91406 -1.832813,1.99219 -6.667188,1.99219 h -5.817187 v 9.21718 z m 3.0015623,-11.9 h 5.870312 q 2.921875,0 4.14375,-1.08906 1.221875,-1.08906 1.221875,-3.05469 0,-1.43437 -0.717187,-2.44375 -0.717188,-1.00937 -1.9125,-1.32812 -0.74375,-0.2125 -2.789063,-0.2125 h -5.817187 z m 35.365011,9.45625 q 2.098438,1.46094 3.851563,2.125 l -0.876563,2.07188 q -2.44375,-0.87656 -4.8875,-2.7625 -2.523437,1.40781 -5.578125,1.40781 -3.08125,0 -5.604687,-1.4875 -2.496875,-1.4875 -3.851563,-4.17031 -1.354687,-2.70938 -1.354687,-6.08281 0,-3.37344 1.354687,-6.10938 1.38125,-2.7625 3.878125,-4.19687 2.523438,-1.46094 5.657813,-1.46094 3.134375,0 5.657812,1.51406 2.523438,1.4875 3.851563,4.17031 1.328125,2.68282 1.328125,6.05625 0,2.81563 -0.85,5.04688 -0.85,2.23125 -2.576563,3.87812 z m -6.614062,-3.82499 q 2.603125,0.71718 4.276562,2.17812 2.65625,-2.41719 2.65625,-7.27813 0,-2.7625 -0.929687,-4.80781 -0.929688,-2.07187 -2.735938,-3.1875 -1.80625,-1.14219 -4.064062,-1.14219 -3.346875,0 -5.578125,2.31094 -2.204688,2.28438 -2.204688,6.85313 0,4.40937 2.178125,6.8 2.204688,2.36406 5.604688,2.36406 1.620312,0 3.028125,-0.61094 -1.407813,-0.90312 -2.975,-1.30156 z m 14.124116,6.26874 v -22.71093 h 10.067188 q 3.028125,0 4.595312,0.61093 1.59375,0.61094 2.523438,2.17813 0.95625,1.54062 0.95625,3.42656 0,2.39063 -1.567188,4.06406 -1.567187,1.64688 -4.834375,2.09844 1.195313,0.58438 1.832813,1.14219 1.301562,1.19531 2.470312,3.00156 l 3.957813,6.18906 h -3.771875 l -3.001563,-4.72812 q -1.328125,-2.04531 -2.178125,-3.10781 -0.85,-1.08906 -1.540625,-1.51407 -0.664062,-0.45156 -1.354687,-0.61093 -0.504688,-0.13282 -1.673438,-0.13282 h -3.479687 v 10.09375 z m 3.001563,-12.67031 h 6.454687 q 2.071875,0 3.214063,-0.425 1.16875,-0.45156 1.779687,-1.38125 0.610938,-0.92969 0.610938,-2.01875 0,-1.62031 -1.16875,-2.65625 -1.16875,-1.03594 -3.71875,-1.03594 h -7.171875 z"
       fill-rule="nonzero"
       id="path35"
       style="stroke-width:1.7" />
    <path
       fill="#000000"
       fill-opacity="0"
       d="m 19.271035,107.4769 h 59.27559 v 42.01575 h -59.27559 z"
       fill-rule="evenodd"
       id="path37" />
    <path
       fill="#000000"
       d="m 10.703806,131.28764 2.815625,-0.23906 q 0.2125,1.7 0.929687,2.78906 0.74375,1.08906 2.284376,1.77969 1.567187,0.66406 3.50625,0.66406 1.699999,0 3.028124,-0.50469 1.328125,-0.50468 1.965625,-1.38125 0.6375,-0.90312 0.6375,-1.96562 0,-1.0625 -0.6375,-1.85938 -0.610938,-0.79687 -2.01875,-1.35468 -0.929688,-0.34532 -4.064062,-1.08907 -3.107812,-0.77031 -4.35625,-1.43437 -1.646875,-0.85 -2.44375,-2.09844 -0.796875,-1.275 -0.796875,-2.84219 0,-1.7 0.982812,-3.1875 0.982813,-1.51406 2.842188,-2.28437 1.885938,-0.77031 4.170313,-0.77031 2.523436,0 4.435936,0.82343 1.939063,0.79688 2.975,2.39063 1.035938,1.56719 1.115625,3.55937 l -2.86875,0.2125 q -0.239062,-2.15156 -1.59375,-3.24062 -1.328125,-1.11563 -3.931249,-1.11563 -2.735937,0 -3.984375,1.00938 -1.248438,1.00937 -1.248438,2.41719 0,1.22187 0.903126,1.99218 0.85,0.79688 4.515625,1.64688 3.665624,0.82344 5.020311,1.43437 1.992188,0.90313 2.921875,2.31094 0.95625,1.40781 0.95625,3.24063 0,1.80625 -1.035937,3.42656 -1.035938,1.59375 -2.975,2.49687 -1.939063,0.87657 -4.382812,0.87657 -3.08125,0 -5.179688,-0.90313 -2.071875,-0.90313 -3.267187,-2.70937 -1.16875,-1.80625 -1.221875,-4.09063 z m 27.954073,7.30469 V 118.5642 h -7.490625 v -2.68281 h 17.982813 v 2.68281 h -7.490625 v 20.02813 z m 28.484105,-22.71094 h 3.001563 v 13.12188 q 0,3.42656 -0.770313,5.44531 -0.770312,2.01875 -2.789062,3.29375 -2.01875,1.24844 -5.3125,1.24844 -3.1875,0 -5.232813,-1.08907 -2.01875,-1.11562 -2.895312,-3.1875 -0.85,-2.09843 -0.85,-5.71093 v -13.12188 h 3.001562 v 13.12188 q 0,2.94843 0.53125,4.35625 0.557813,1.38125 1.885938,2.15156 1.354687,0.77031 3.29375,0.77031 3.320312,0 4.728125,-1.51406 1.407812,-1.51406 1.407812,-5.76406 z"
       fill-rule="nonzero"
       id="path39"
       style="stroke-width:1.7" />
    <path
       fill="#000000"
       fill-opacity="0"
       d="M 221.25528,187.78399 278.70412,57.043825"
       fill-rule="evenodd"
       id="path41" />
    <path
       stroke="#000000"
       stroke-width="3"
       stroke-linejoin="round"
       stroke-linecap="butt"
       d="M 221.25528,187.78399 271.46294,73.523065"
       fill-rule="evenodd"
       id="path43" />
    <path
       fill="#000000"
       stroke="#000000"
       stroke-width="3"
       stroke-linecap="butt"
       d="M 275.99947,75.516485 276.93981,61.059 266.92638,71.529654 Z"
       fill-rule="evenodd"
       id="path45" />
  </g>
  <path
     style="fill:none;stroke:#000000;stroke-width:2.1;stroke-linecap:butt;stroke-linejoin:miter;stroke-miterlimit:10;stroke-dasharray:8.4,4.2;stroke-dashoffset:0;stroke-opacity:0.36088711"
     d="M 78.546624,132.96255 363.96395,251.1881"
     id="path88" />
  <path
     style="fill:none;stroke:#000000;stroke-width:2.1;stroke-linecap:butt;stroke-linejoin:miter;stroke-miterlimit:10;stroke-dasharray:8.4,4.2;stroke-dashoffset:0;stroke-opacity:0.36088711"
     d="M 78.546624,251.1881 363.96395,132.96255 v 0"
     id="path1749" />
  <path
     style="fill:none;stroke:#000000;stroke-width:2.1;stroke-linecap:butt;stroke-linejoin:miter;stroke-miterlimit:10;stroke-dasharray:8.4,4.2;stroke-dashoffset:0;stroke-opacity:0.36088711"
     d="M 280.36806,334.78397 162.1425,49.366655"
     id="path1753" />
  <path
     style="fill:none;stroke:#000000;stroke-width:2.1;stroke-linecap:butt;stroke-linejoin:miter;stroke-miterlimit:10;stroke-dasharray:8.4,4.2;stroke-dashoffset:0;stroke-opacity:0.36088711"
     d="M 280.36806,49.366655 162.1425,334.78397"
     id="path1755" />
  <path
     style="fill:none;stroke:#d40000;stroke-width:4;stroke-linecap:butt;stroke-linejoin:miter;stroke-miterlimit:10;stroke-dasharray:none;stroke-opacity:1"
     d="m 242.60273,169.6855 c 33.45779,40.11149 -23.65464,74.73089 -48.77881,44.31966 -12.23588,-14.8107 -4.55471,-28.61579 -4.55471,-28.61579"
     id="path2060"
     sodipodi:nodetypes="csc" />
  <path
     style="fill:#d40000;stroke:#d40000;stroke-width:4;stroke-linecap:butt;stroke-linejoin:miter;stroke-miterlimit:10;stroke-dasharray:none;stroke-opacity:1"
     d="m 181.22382,182.41055 14.61641,5.53262 -0.64005,-14.70438 z"
     id="path4645" />
</svg>
