<?xml version="1.0" encoding="UTF-8" standalone="no"?><svg xmlns="http://www.w3.org/2000/svg" xmlns:xlink="http://www.w3.org/1999/xlink" contentStyleType="text/css" height="564px" preserveAspectRatio="none" style="width:1388px;height:564px;background:#FFFFFF;" version="1.1" viewBox="0 0 1388 564" width="1388px" zoomAndPan="magnify"><defs/><g><!--MD5=[cde55e233ee8f3e2c5cfdd6c5406e4f1]
class ShapeMatchingGame--><g id="elem_ShapeMatchingGame"><rect codeLine="2" fill="#F1F1F1" height="153.6563" id="ShapeMatchingGame" rx="2.5" ry="2.5" style="stroke:#181818;stroke-width:0.5;" width="284" x="7" y="151"/><ellipse cx="76.75" cy="167" fill="#ADD1B2" rx="11" ry="11" style="stroke:#181818;stroke-width:1.0;"/><path d="M79.5156,162.875 Q79.6719,162.6563 79.8594,162.5469 Q80.0469,162.4375 80.2656,162.4375 Q80.6406,162.4375 80.875,162.6953 Q81.1094,162.9531 81.1094,163.5625 L81.1094,165.0156 Q81.1094,165.625 80.875,165.8906 Q80.6406,166.1563 80.2656,166.1563 Q79.9219,166.1563 79.7188,165.9531 Q79.5156,165.7656 79.4063,165.25 Q79.3594,164.8906 79.1719,164.7031 Q78.8438,164.3281 78.2344,164.1094 Q77.625,163.8906 77,163.8906 Q76.2344,163.8906 75.6016,164.2188 Q74.9688,164.5469 74.4766,165.2969 Q73.9844,166.0469 73.9844,167.0781 L73.9844,168.1719 Q73.9844,169.4063 74.875,170.2266 Q75.7656,171.0469 77.3594,171.0469 Q78.2969,171.0469 78.9531,170.7969 Q79.3438,170.6406 79.7656,170.2031 Q80.0313,169.9375 80.1797,169.8594 Q80.3281,169.7813 80.5313,169.7813 Q80.8594,169.7813 81.1172,170.0391 Q81.375,170.2969 81.375,170.6406 Q81.375,170.9844 81.0313,171.3906 Q80.5313,171.9688 79.7344,172.2969 Q78.6563,172.75 77.3594,172.75 Q75.8438,172.75 74.6406,172.125 Q73.6563,171.625 72.9688,170.5547 Q72.2813,169.4844 72.2813,168.2031 L72.2813,167.0469 Q72.2813,165.7188 72.8984,164.5703 Q73.5156,163.4219 74.6094,162.8047 Q75.7031,162.1875 76.9375,162.1875 Q77.6719,162.1875 78.3203,162.3516 Q78.9688,162.5156 79.5156,162.875 Z " fill="#000000"/><text fill="#000000" font-family="sans-serif" font-size="14" lengthAdjust="spacing" textLength="136" x="97.25" y="172.7285">ShapeMatchingGame</text><line style="stroke:#181818;stroke-width:0.5;" x1="8" x2="290" y1="183" y2="183"/><rect fill="none" height="6" style="stroke:#C82930;stroke-width:1.0;" width="6" x="15" y="194.3047"/><text fill="#000000" font-family="sans-serif" font-size="14" lengthAdjust="spacing" textLength="145" x="27" y="201.5332">initialDrawers: Drawer[]</text><rect fill="none" height="6" style="stroke:#C82930;stroke-width:1.0;" width="6" x="15" y="211.9141"/><text fill="#000000" font-family="sans-serif" font-size="14" lengthAdjust="spacing" textLength="135" x="27" y="219.1426">currentShape: Shape</text><line style="stroke:#181818;stroke-width:0.5;" x1="8" x2="290" y1="226.2188" y2="226.2188"/><ellipse cx="18" cy="240.5234" fill="#84BE84" rx="3" ry="3" style="stroke:#038048;stroke-width:1.0;"/><text fill="#000000" font-family="sans-serif" font-size="14" lengthAdjust="spacing" textLength="182" x="27" y="244.752">onDragEnd(result: any): void</text><ellipse cx="18" cy="258.1328" fill="#84BE84" rx="3" ry="3" style="stroke:#038048;stroke-width:1.0;"/><text fill="#000000" font-family="sans-serif" font-size="14" lengthAdjust="spacing" textLength="190" x="27" y="262.3613">renderDrawers(): JSX.Element</text><ellipse cx="18" cy="275.7422" fill="#84BE84" rx="3" ry="3" style="stroke:#038048;stroke-width:1.0;"/><text fill="#000000" font-family="sans-serif" font-size="14" lengthAdjust="spacing" textLength="258" x="27" y="279.9707">handleDrawerClick(drawer: Drawer): void</text><ellipse cx="18" cy="293.3516" fill="#84BE84" rx="3" ry="3" style="stroke:#038048;stroke-width:1.0;"/><text fill="#000000" font-family="sans-serif" font-size="14" lengthAdjust="spacing" textLength="228" x="27" y="297.5801">getImagePath(shape: Shape): string</text></g><!--MD5=[a726c335137389907e186f65e77f322f]
class BallSortGame--><g id="elem_BallSortGame"><rect codeLine="11" fill="#F1F1F1" height="118.4375" id="BallSortGame" rx="2.5" ry="2.5" style="stroke:#181818;stroke-width:0.5;" width="256" x="326" y="169"/><ellipse cx="406.25" cy="185" fill="#ADD1B2" rx="11" ry="11" style="stroke:#181818;stroke-width:1.0;"/><path d="M409.0156,180.875 Q409.1719,180.6563 409.3594,180.5469 Q409.5469,180.4375 409.7656,180.4375 Q410.1406,180.4375 410.375,180.6953 Q410.6094,180.9531 410.6094,181.5625 L410.6094,183.0156 Q410.6094,183.625 410.375,183.8906 Q410.1406,184.1563 409.7656,184.1563 Q409.4219,184.1563 409.2188,183.9531 Q409.0156,183.7656 408.9063,183.25 Q408.8594,182.8906 408.6719,182.7031 Q408.3438,182.3281 407.7344,182.1094 Q407.125,181.8906 406.5,181.8906 Q405.7344,181.8906 405.1016,182.2188 Q404.4688,182.5469 403.9766,183.2969 Q403.4844,184.0469 403.4844,185.0781 L403.4844,186.1719 Q403.4844,187.4063 404.375,188.2266 Q405.2656,189.0469 406.8594,189.0469 Q407.7969,189.0469 408.4531,188.7969 Q408.8438,188.6406 409.2656,188.2031 Q409.5313,187.9375 409.6797,187.8594 Q409.8281,187.7813 410.0313,187.7813 Q410.3594,187.7813 410.6172,188.0391 Q410.875,188.2969 410.875,188.6406 Q410.875,188.9844 410.5313,189.3906 Q410.0313,189.9688 409.2344,190.2969 Q408.1563,190.75 406.8594,190.75 Q405.3438,190.75 404.1406,190.125 Q403.1563,189.625 402.4688,188.5547 Q401.7813,187.4844 401.7813,186.2031 L401.7813,185.0469 Q401.7813,183.7188 402.3984,182.5703 Q403.0156,181.4219 404.1094,180.8047 Q405.2031,180.1875 406.4375,180.1875 Q407.1719,180.1875 407.8203,180.3516 Q408.4688,180.5156 409.0156,180.875 Z " fill="#000000"/><text fill="#000000" font-family="sans-serif" font-size="14" lengthAdjust="spacing" textLength="87" x="426.75" y="190.7285">BallSortGame</text><line style="stroke:#181818;stroke-width:0.5;" x1="327" x2="581" y1="201" y2="201"/><rect fill="none" height="6" style="stroke:#C82930;stroke-width:1.0;" width="6" x="334" y="212.3047"/><text fill="#000000" font-family="sans-serif" font-size="14" lengthAdjust="spacing" textLength="121" x="346" y="219.5332">initialTubes: Tube[]</text><line style="stroke:#181818;stroke-width:0.5;" x1="327" x2="581" y1="226.6094" y2="226.6094"/><ellipse cx="337" cy="240.9141" fill="#84BE84" rx="3" ry="3" style="stroke:#038048;stroke-width:1.0;"/><text fill="#000000" font-family="sans-serif" font-size="14" lengthAdjust="spacing" textLength="230" x="346" y="245.1426">onDragEnd(result: DropResult): void</text><ellipse cx="337" cy="258.5234" fill="#84BE84" rx="3" ry="3" style="stroke:#038048;stroke-width:1.0;"/><text fill="#000000" font-family="sans-serif" font-size="14" lengthAdjust="spacing" textLength="165" x="346" y="262.752">checkWinCondition(): void</text><ellipse cx="337" cy="276.1328" fill="#84BE84" rx="3" ry="3" style="stroke:#038048;stroke-width:1.0;"/><text fill="#000000" font-family="sans-serif" font-size="14" lengthAdjust="spacing" textLength="227" x="346" y="280.3613">getTubeImagePath(id: string): string</text></g><!--MD5=[befa8506f3d5e35c19af0ce34b210f9a]
class EncryptionGame--><g id="elem_EncryptionGame"><rect codeLine="18" fill="#F1F1F1" height="118.4375" id="EncryptionGame" rx="2.5" ry="2.5" style="stroke:#181818;stroke-width:0.5;" width="164" x="617" y="169"/><ellipse cx="644.15" cy="185" fill="#ADD1B2" rx="11" ry="11" style="stroke:#181818;stroke-width:1.0;"/><path d="M646.9156,180.875 Q647.0719,180.6563 647.2594,180.5469 Q647.4469,180.4375 647.6656,180.4375 Q648.0406,180.4375 648.275,180.6953 Q648.5094,180.9531 648.5094,181.5625 L648.5094,183.0156 Q648.5094,183.625 648.275,183.8906 Q648.0406,184.1563 647.6656,184.1563 Q647.3219,184.1563 647.1188,183.9531 Q646.9156,183.7656 646.8063,183.25 Q646.7594,182.8906 646.5719,182.7031 Q646.2438,182.3281 645.6344,182.1094 Q645.025,181.8906 644.4,181.8906 Q643.6344,181.8906 643.0016,182.2188 Q642.3688,182.5469 641.8766,183.2969 Q641.3844,184.0469 641.3844,185.0781 L641.3844,186.1719 Q641.3844,187.4063 642.275,188.2266 Q643.1656,189.0469 644.7594,189.0469 Q645.6969,189.0469 646.3531,188.7969 Q646.7438,188.6406 647.1656,188.2031 Q647.4313,187.9375 647.5797,187.8594 Q647.7281,187.7813 647.9313,187.7813 Q648.2594,187.7813 648.5172,188.0391 Q648.775,188.2969 648.775,188.6406 Q648.775,188.9844 648.4313,189.3906 Q647.9313,189.9688 647.1344,190.2969 Q646.0563,190.75 644.7594,190.75 Q643.2438,190.75 642.0406,190.125 Q641.0563,189.625 640.3688,188.5547 Q639.6813,187.4844 639.6813,186.2031 L639.6813,185.0469 Q639.6813,183.7188 640.2984,182.5703 Q640.9156,181.4219 642.0094,180.8047 Q643.1031,180.1875 644.3375,180.1875 Q645.0719,180.1875 645.7203,180.3516 Q646.3688,180.5156 646.9156,180.875 Z " fill="#000000"/><text fill="#000000" font-family="sans-serif" font-size="14" lengthAdjust="spacing" textLength="105" x="660.85" y="190.7285">EncryptionGame</text><line style="stroke:#181818;stroke-width:0.5;" x1="618" x2="780" y1="201" y2="201"/><rect fill="none" height="6" style="stroke:#C82930;stroke-width:1.0;" width="6" x="625" y="212.3047"/><text fill="#000000" font-family="sans-serif" font-size="14" lengthAdjust="spacing" textLength="102" x="637" y="219.5332">userInput: string</text><rect fill="none" height="6" style="stroke:#C82930;stroke-width:1.0;" width="6" x="625" y="229.9141"/><text fill="#000000" font-family="sans-serif" font-size="14" lengthAdjust="spacing" textLength="87" x="637" y="237.1426">timer: number</text><rect fill="none" height="6" style="stroke:#C82930;stroke-width:1.0;" width="6" x="625" y="247.5234"/><text fill="#000000" font-family="sans-serif" font-size="14" lengthAdjust="spacing" textLength="138" x="637" y="254.752">isGameOver: boolean</text><line style="stroke:#181818;stroke-width:0.5;" x1="618" x2="780" y1="261.8281" y2="261.8281"/><ellipse cx="628" cy="276.1328" fill="#84BE84" rx="3" ry="3" style="stroke:#038048;stroke-width:1.0;"/><text fill="#000000" font-family="sans-serif" font-size="14" lengthAdjust="spacing" textLength="132" x="637" y="280.3613">checkSolution(): void</text></g><!--MD5=[2f2e27baf118fdb8a4cd7982d95a5d57]
class GreedyTrolls--><g id="elem_GreedyTrolls"><rect codeLine="25" fill="#F1F1F1" height="118.4375" id="GreedyTrolls" rx="2.5" ry="2.5" style="stroke:#181818;stroke-width:0.5;" width="377" x="816.5" y="169"/><ellipse cx="959.75" cy="185" fill="#ADD1B2" rx="11" ry="11" style="stroke:#181818;stroke-width:1.0;"/><path d="M962.5156,180.875 Q962.6719,180.6563 962.8594,180.5469 Q963.0469,180.4375 963.2656,180.4375 Q963.6406,180.4375 963.875,180.6953 Q964.1094,180.9531 964.1094,181.5625 L964.1094,183.0156 Q964.1094,183.625 963.875,183.8906 Q963.6406,184.1563 963.2656,184.1563 Q962.9219,184.1563 962.7188,183.9531 Q962.5156,183.7656 962.4063,183.25 Q962.3594,182.8906 962.1719,182.7031 Q961.8438,182.3281 961.2344,182.1094 Q960.625,181.8906 960,181.8906 Q959.2344,181.8906 958.6016,182.2188 Q957.9688,182.5469 957.4766,183.2969 Q956.9844,184.0469 956.9844,185.0781 L956.9844,186.1719 Q956.9844,187.4063 957.875,188.2266 Q958.7656,189.0469 960.3594,189.0469 Q961.2969,189.0469 961.9531,188.7969 Q962.3438,188.6406 962.7656,188.2031 Q963.0313,187.9375 963.1797,187.8594 Q963.3281,187.7813 963.5313,187.7813 Q963.8594,187.7813 964.1172,188.0391 Q964.375,188.2969 964.375,188.6406 Q964.375,188.9844 964.0313,189.3906 Q963.5313,189.9688 962.7344,190.2969 Q961.6563,190.75 960.3594,190.75 Q958.8438,190.75 957.6406,190.125 Q956.6563,189.625 955.9688,188.5547 Q955.2813,187.4844 955.2813,186.2031 L955.2813,185.0469 Q955.2813,183.7188 955.8984,182.5703 Q956.5156,181.4219 957.6094,180.8047 Q958.7031,180.1875 959.9375,180.1875 Q960.6719,180.1875 961.3203,180.3516 Q961.9688,180.5156 962.5156,180.875 Z " fill="#000000"/><text fill="#000000" font-family="sans-serif" font-size="14" lengthAdjust="spacing" textLength="82" x="980.25" y="190.7285">GreedyTrolls</text><line style="stroke:#181818;stroke-width:0.5;" x1="817.5" x2="1192.5" y1="201" y2="201"/><rect fill="none" height="6" style="stroke:#C82930;stroke-width:1.0;" width="6" x="824.5" y="212.3047"/><text fill="#000000" font-family="sans-serif" font-size="14" lengthAdjust="spacing" textLength="137" x="836.5" y="219.5332">coinsState: CoinItem[]</text><line style="stroke:#181818;stroke-width:0.5;" x1="817.5" x2="1192.5" y1="226.6094" y2="226.6094"/><ellipse cx="827.5" cy="240.9141" fill="#84BE84" rx="3" ry="3" style="stroke:#038048;stroke-width:1.0;"/><text fill="#000000" font-family="sans-serif" font-size="14" lengthAdjust="spacing" textLength="230" x="836.5" y="245.1426">onDragEnd(result: DropResult): void</text><ellipse cx="827.5" cy="258.5234" fill="#84BE84" rx="3" ry="3" style="stroke:#038048;stroke-width:1.0;"/><text fill="#000000" font-family="sans-serif" font-size="14" lengthAdjust="spacing" textLength="351" x="836.5" y="262.752">checkWinCondition(currentSequence: CoinType[]): void</text><ellipse cx="827.5" cy="276.1328" fill="#84BE84" rx="3" ry="3" style="stroke:#038048;stroke-width:1.0;"/><text fill="#000000" font-family="sans-serif" font-size="14" lengthAdjust="spacing" textLength="236" x="836.5" y="280.3613">getImagePath(type: CoinType): string</text></g><!--MD5=[1c4041c2a532d1895862e4e3caf0bc9a]
class QRCodeGenerator--><g id="elem_QRCodeGenerator"><rect codeLine="32" fill="#F1F1F1" height="65.6094" id="QRCodeGenerator" rx="2.5" ry="2.5" style="stroke:#181818;stroke-width:0.5;" width="152" x="1229" y="195"/><ellipse cx="1244" cy="211" fill="#ADD1B2" rx="11" ry="11" style="stroke:#181818;stroke-width:1.0;"/><path d="M1246.7656,206.875 Q1246.9219,206.6563 1247.1094,206.5469 Q1247.2969,206.4375 1247.5156,206.4375 Q1247.8906,206.4375 1248.125,206.6953 Q1248.3594,206.9531 1248.3594,207.5625 L1248.3594,209.0156 Q1248.3594,209.625 1248.125,209.8906 Q1247.8906,210.1563 1247.5156,210.1563 Q1247.1719,210.1563 1246.9688,209.9531 Q1246.7656,209.7656 1246.6563,209.25 Q1246.6094,208.8906 1246.4219,208.7031 Q1246.0938,208.3281 1245.4844,208.1094 Q1244.875,207.8906 1244.25,207.8906 Q1243.4844,207.8906 1242.8516,208.2188 Q1242.2188,208.5469 1241.7266,209.2969 Q1241.2344,210.0469 1241.2344,211.0781 L1241.2344,212.1719 Q1241.2344,213.4063 1242.125,214.2266 Q1243.0156,215.0469 1244.6094,215.0469 Q1245.5469,215.0469 1246.2031,214.7969 Q1246.5938,214.6406 1247.0156,214.2031 Q1247.2813,213.9375 1247.4297,213.8594 Q1247.5781,213.7813 1247.7813,213.7813 Q1248.1094,213.7813 1248.3672,214.0391 Q1248.625,214.2969 1248.625,214.6406 Q1248.625,214.9844 1248.2813,215.3906 Q1247.7813,215.9688 1246.9844,216.2969 Q1245.9063,216.75 1244.6094,216.75 Q1243.0938,216.75 1241.8906,216.125 Q1240.9063,215.625 1240.2188,214.5547 Q1239.5313,213.4844 1239.5313,212.2031 L1239.5313,211.0469 Q1239.5313,209.7188 1240.1484,208.5703 Q1240.7656,207.4219 1241.8594,206.8047 Q1242.9531,206.1875 1244.1875,206.1875 Q1244.9219,206.1875 1245.5703,206.3516 Q1246.2188,206.5156 1246.7656,206.875 Z " fill="#000000"/><text fill="#000000" font-family="sans-serif" font-size="14" lengthAdjust="spacing" textLength="120" x="1258" y="216.7285">QRCodeGenerator</text><line style="stroke:#181818;stroke-width:0.5;" x1="1230" x2="1380" y1="227" y2="227"/><ellipse cx="1240" cy="241.3047" fill="none" rx="3" ry="3" style="stroke:#038048;stroke-width:1.0;"/><text fill="#000000" font-family="sans-serif" font-size="14" lengthAdjust="spacing" textLength="126" x="1249" y="245.5332">qrCodeValue: string</text><line style="stroke:#181818;stroke-width:0.5;" x1="1230" x2="1380" y1="252.6094" y2="252.6094"/></g><!--MD5=[335f4d9be48430461c68bf6d6fdba145]
class App--><g id="elem_App"><rect codeLine="36" fill="#F1F1F1" height="65.6094" id="App" rx="2.5" ry="2.5" style="stroke:#181818;stroke-width:0.5;" width="202" x="598" y="7"/><ellipse cx="682.25" cy="23" fill="#ADD1B2" rx="11" ry="11" style="stroke:#181818;stroke-width:1.0;"/><path d="M685.0156,18.875 Q685.1719,18.6563 685.3594,18.5469 Q685.5469,18.4375 685.7656,18.4375 Q686.1406,18.4375 686.375,18.6953 Q686.6094,18.9531 686.6094,19.5625 L686.6094,21.0156 Q686.6094,21.625 686.375,21.8906 Q686.1406,22.1563 685.7656,22.1563 Q685.4219,22.1563 685.2188,21.9531 Q685.0156,21.7656 684.9063,21.25 Q684.8594,20.8906 684.6719,20.7031 Q684.3438,20.3281 683.7344,20.1094 Q683.125,19.8906 682.5,19.8906 Q681.7344,19.8906 681.1016,20.2188 Q680.4688,20.5469 679.9766,21.2969 Q679.4844,22.0469 679.4844,23.0781 L679.4844,24.1719 Q679.4844,25.4063 680.375,26.2266 Q681.2656,27.0469 682.8594,27.0469 Q683.7969,27.0469 684.4531,26.7969 Q684.8438,26.6406 685.2656,26.2031 Q685.5313,25.9375 685.6797,25.8594 Q685.8281,25.7813 686.0313,25.7813 Q686.3594,25.7813 686.6172,26.0391 Q686.875,26.2969 686.875,26.6406 Q686.875,26.9844 686.5313,27.3906 Q686.0313,27.9688 685.2344,28.2969 Q684.1563,28.75 682.8594,28.75 Q681.3438,28.75 680.1406,28.125 Q679.1563,27.625 678.4688,26.5547 Q677.7813,25.4844 677.7813,24.2031 L677.7813,23.0469 Q677.7813,21.7188 678.3984,20.5703 Q679.0156,19.4219 680.1094,18.8047 Q681.2031,18.1875 682.4375,18.1875 Q683.1719,18.1875 683.8203,18.3516 Q684.4688,18.5156 685.0156,18.875 Z " fill="#000000"/><text fill="#000000" font-family="sans-serif" font-size="14" lengthAdjust="spacing" textLength="25" x="702.75" y="28.7285">App</text><line style="stroke:#181818;stroke-width:0.5;" x1="599" x2="799" y1="39" y2="39"/><line style="stroke:#181818;stroke-width:0.5;" x1="599" x2="799" y1="47" y2="47"/><ellipse cx="609" cy="61.3047" fill="#84BE84" rx="3" ry="3" style="stroke:#038048;stroke-width:1.0;"/><text fill="#000000" font-family="sans-serif" font-size="14" lengthAdjust="spacing" textLength="176" x="618" y="65.5332">RouterSetup(): JSX.Element</text></g><!--MD5=[3c9f41ab8d00cf41f6672091c2f88dd2]
class StrictModeDroppable--><g id="elem_StrictModeDroppable"><rect codeLine="40" fill="#F1F1F1" height="65.6094" id="StrictModeDroppable" rx="2.5" ry="2.5" style="stroke:#181818;stroke-width:0.5;" width="165" x="835.5" y="7"/><ellipse cx="850.5" cy="23" fill="#ADD1B2" rx="11" ry="11" style="stroke:#181818;stroke-width:1.0;"/><path d="M853.2656,18.875 Q853.4219,18.6563 853.6094,18.5469 Q853.7969,18.4375 854.0156,18.4375 Q854.3906,18.4375 854.625,18.6953 Q854.8594,18.9531 854.8594,19.5625 L854.8594,21.0156 Q854.8594,21.625 854.625,21.8906 Q854.3906,22.1563 854.0156,22.1563 Q853.6719,22.1563 853.4688,21.9531 Q853.2656,21.7656 853.1563,21.25 Q853.1094,20.8906 852.9219,20.7031 Q852.5938,20.3281 851.9844,20.1094 Q851.375,19.8906 850.75,19.8906 Q849.9844,19.8906 849.3516,20.2188 Q848.7188,20.5469 848.2266,21.2969 Q847.7344,22.0469 847.7344,23.0781 L847.7344,24.1719 Q847.7344,25.4063 848.625,26.2266 Q849.5156,27.0469 851.1094,27.0469 Q852.0469,27.0469 852.7031,26.7969 Q853.0938,26.6406 853.5156,26.2031 Q853.7813,25.9375 853.9297,25.8594 Q854.0781,25.7813 854.2813,25.7813 Q854.6094,25.7813 854.8672,26.0391 Q855.125,26.2969 855.125,26.6406 Q855.125,26.9844 854.7813,27.3906 Q854.2813,27.9688 853.4844,28.2969 Q852.4063,28.75 851.1094,28.75 Q849.5938,28.75 848.3906,28.125 Q847.4063,27.625 846.7188,26.5547 Q846.0313,25.4844 846.0313,24.2031 L846.0313,23.0469 Q846.0313,21.7188 846.6484,20.5703 Q847.2656,19.4219 848.3594,18.8047 Q849.4531,18.1875 850.6875,18.1875 Q851.4219,18.1875 852.0703,18.3516 Q852.7188,18.5156 853.2656,18.875 Z " fill="#000000"/><text fill="#000000" font-family="sans-serif" font-size="14" lengthAdjust="spacing" textLength="133" x="864.5" y="28.7285">StrictModeDroppable</text><line style="stroke:#181818;stroke-width:0.5;" x1="836.5" x2="999.5" y1="39" y2="39"/><rect fill="none" height="6" style="stroke:#C82930;stroke-width:1.0;" width="6" x="843.5" y="50.3047"/><text fill="#000000" font-family="sans-serif" font-size="14" lengthAdjust="spacing" textLength="110" x="855.5" y="57.5332">enabled: boolean</text><line style="stroke:#181818;stroke-width:0.5;" x1="836.5" x2="999.5" y1="64.6094" y2="64.6094"/></g><!--MD5=[79f6533230c3f33fdf7cfa7185401d89]
class Drawer--><g id="elem_Drawer"><rect fill="#F1F1F1" height="48" id="Drawer" rx="2.5" ry="2.5" style="stroke:#181818;stroke-width:0.5;" width="77" x="110.5" y="383"/><ellipse cx="125.5" cy="399" fill="#ADD1B2" rx="11" ry="11" style="stroke:#181818;stroke-width:1.0;"/><path d="M128.2656,394.875 Q128.4219,394.6563 128.6094,394.5469 Q128.7969,394.4375 129.0156,394.4375 Q129.3906,394.4375 129.625,394.6953 Q129.8594,394.9531 129.8594,395.5625 L129.8594,397.0156 Q129.8594,397.625 129.625,397.8906 Q129.3906,398.1563 129.0156,398.1563 Q128.6719,398.1563 128.4688,397.9531 Q128.2656,397.7656 128.1563,397.25 Q128.1094,396.8906 127.9219,396.7031 Q127.5938,396.3281 126.9844,396.1094 Q126.375,395.8906 125.75,395.8906 Q124.9844,395.8906 124.3516,396.2188 Q123.7188,396.5469 123.2266,397.2969 Q122.7344,398.0469 122.7344,399.0781 L122.7344,400.1719 Q122.7344,401.4063 123.625,402.2266 Q124.5156,403.0469 126.1094,403.0469 Q127.0469,403.0469 127.7031,402.7969 Q128.0938,402.6406 128.5156,402.2031 Q128.7813,401.9375 128.9297,401.8594 Q129.0781,401.7813 129.2813,401.7813 Q129.6094,401.7813 129.8672,402.0391 Q130.125,402.2969 130.125,402.6406 Q130.125,402.9844 129.7813,403.3906 Q129.2813,403.9688 128.4844,404.2969 Q127.4063,404.75 126.1094,404.75 Q124.5938,404.75 123.3906,404.125 Q122.4063,403.625 121.7188,402.5547 Q121.0313,401.4844 121.0313,400.2031 L121.0313,399.0469 Q121.0313,397.7188 121.6484,396.5703 Q122.2656,395.4219 123.3594,394.8047 Q124.4531,394.1875 125.6875,394.1875 Q126.4219,394.1875 127.0703,394.3516 Q127.7188,394.5156 128.2656,394.875 Z " fill="#000000"/><text fill="#000000" font-family="sans-serif" font-size="14" lengthAdjust="spacing" textLength="45" x="139.5" y="404.7285">Drawer</text><line style="stroke:#181818;stroke-width:0.5;" x1="111.5" x2="186.5" y1="415" y2="415"/><line style="stroke:#181818;stroke-width:0.5;" x1="111.5" x2="186.5" y1="423" y2="423"/></g><!--MD5=[de6ad306d97bf3531e8736b14c7352c7]
class Tube--><g id="elem_Tube"><rect fill="#F1F1F1" height="48" id="Tube" rx="2.5" ry="2.5" style="stroke:#181818;stroke-width:0.5;" width="65" x="421.5" y="383"/><ellipse cx="436.5" cy="399" fill="#ADD1B2" rx="11" ry="11" style="stroke:#181818;stroke-width:1.0;"/><path d="M439.2656,394.875 Q439.4219,394.6563 439.6094,394.5469 Q439.7969,394.4375 440.0156,394.4375 Q440.3906,394.4375 440.625,394.6953 Q440.8594,394.9531 440.8594,395.5625 L440.8594,397.0156 Q440.8594,397.625 440.625,397.8906 Q440.3906,398.1563 440.0156,398.1563 Q439.6719,398.1563 439.4688,397.9531 Q439.2656,397.7656 439.1563,397.25 Q439.1094,396.8906 438.9219,396.7031 Q438.5938,396.3281 437.9844,396.1094 Q437.375,395.8906 436.75,395.8906 Q435.9844,395.8906 435.3516,396.2188 Q434.7188,396.5469 434.2266,397.2969 Q433.7344,398.0469 433.7344,399.0781 L433.7344,400.1719 Q433.7344,401.4063 434.625,402.2266 Q435.5156,403.0469 437.1094,403.0469 Q438.0469,403.0469 438.7031,402.7969 Q439.0938,402.6406 439.5156,402.2031 Q439.7813,401.9375 439.9297,401.8594 Q440.0781,401.7813 440.2813,401.7813 Q440.6094,401.7813 440.8672,402.0391 Q441.125,402.2969 441.125,402.6406 Q441.125,402.9844 440.7813,403.3906 Q440.2813,403.9688 439.4844,404.2969 Q438.4063,404.75 437.1094,404.75 Q435.5938,404.75 434.3906,404.125 Q433.4063,403.625 432.7188,402.5547 Q432.0313,401.4844 432.0313,400.2031 L432.0313,399.0469 Q432.0313,397.7188 432.6484,396.5703 Q433.2656,395.4219 434.3594,394.8047 Q435.4531,394.1875 436.6875,394.1875 Q437.4219,394.1875 438.0703,394.3516 Q438.7188,394.5156 439.2656,394.875 Z " fill="#000000"/><text fill="#000000" font-family="sans-serif" font-size="14" lengthAdjust="spacing" textLength="33" x="450.5" y="404.7285">Tube</text><line style="stroke:#181818;stroke-width:0.5;" x1="422.5" x2="485.5" y1="415" y2="415"/><line style="stroke:#181818;stroke-width:0.5;" x1="422.5" x2="485.5" y1="423" y2="423"/></g><!--MD5=[94c7f9372c62fd735ca66cf2c8b73ece]
class Ball--><g id="elem_Ball"><rect fill="#F1F1F1" height="48" id="Ball" rx="2.5" ry="2.5" style="stroke:#181818;stroke-width:0.5;" width="55" x="426.5" y="509"/><ellipse cx="441.5" cy="525" fill="#ADD1B2" rx="11" ry="11" style="stroke:#181818;stroke-width:1.0;"/><path d="M444.2656,520.875 Q444.4219,520.6563 444.6094,520.5469 Q444.7969,520.4375 445.0156,520.4375 Q445.3906,520.4375 445.625,520.6953 Q445.8594,520.9531 445.8594,521.5625 L445.8594,523.0156 Q445.8594,523.625 445.625,523.8906 Q445.3906,524.1563 445.0156,524.1563 Q444.6719,524.1563 444.4688,523.9531 Q444.2656,523.7656 444.1563,523.25 Q444.1094,522.8906 443.9219,522.7031 Q443.5938,522.3281 442.9844,522.1094 Q442.375,521.8906 441.75,521.8906 Q440.9844,521.8906 440.3516,522.2188 Q439.7188,522.5469 439.2266,523.2969 Q438.7344,524.0469 438.7344,525.0781 L438.7344,526.1719 Q438.7344,527.4063 439.625,528.2266 Q440.5156,529.0469 442.1094,529.0469 Q443.0469,529.0469 443.7031,528.7969 Q444.0938,528.6406 444.5156,528.2031 Q444.7813,527.9375 444.9297,527.8594 Q445.0781,527.7813 445.2813,527.7813 Q445.6094,527.7813 445.8672,528.0391 Q446.125,528.2969 446.125,528.6406 Q446.125,528.9844 445.7813,529.3906 Q445.2813,529.9688 444.4844,530.2969 Q443.4063,530.75 442.1094,530.75 Q440.5938,530.75 439.3906,530.125 Q438.4063,529.625 437.7188,528.5547 Q437.0313,527.4844 437.0313,526.2031 L437.0313,525.0469 Q437.0313,523.7188 437.6484,522.5703 Q438.2656,521.4219 439.3594,520.8047 Q440.4531,520.1875 441.6875,520.1875 Q442.4219,520.1875 443.0703,520.3516 Q443.7188,520.5156 444.2656,520.875 Z " fill="#000000"/><text fill="#000000" font-family="sans-serif" font-size="14" lengthAdjust="spacing" textLength="23" x="455.5" y="530.7285">Ball</text><line style="stroke:#181818;stroke-width:0.5;" x1="427.5" x2="480.5" y1="541" y2="541"/><line style="stroke:#181818;stroke-width:0.5;" x1="427.5" x2="480.5" y1="549" y2="549"/></g><!--MD5=[1cd55987861fb2414aae8b40cd6c558c]
link ShapeMatchingGame to Drawer--><g id="link_ShapeMatchingGame_Drawer"><path codeLine="44" d="M149,305.09 C149,330.89 149,358.13 149,377.8 " fill="none" id="ShapeMatchingGame-to-Drawer" style="stroke:#181818;stroke-width:1.0;"/><polygon fill="#181818" points="149,382.88,153,373.88,149,377.88,145,373.88,149,382.88" style="stroke:#181818;stroke-width:1.0;"/><text fill="#000000" font-family="sans-serif" font-size="13" lengthAdjust="spacing" textLength="7" x="141.1031" y="372.1894">1</text></g><!--MD5=[5afca5e404d5ed34cfb8bd2d0596cf02]
link BallSortGame to Tube--><g id="link_BallSortGame_Tube"><path codeLine="45" d="M454,287.45 C454,317.78 454,353.45 454,377.69 " fill="none" id="BallSortGame-to-Tube" style="stroke:#181818;stroke-width:1.0;"/><polygon fill="#181818" points="454,382.98,458,373.98,454,377.98,450,373.98,454,382.98" style="stroke:#181818;stroke-width:1.0;"/><polygon fill="#000000" points="459,349.1758,461.9389,340.1307,456.0611,340.1307,459,349.1758" style="stroke:#000000;stroke-width:1.0;"/><text fill="#000000" font-family="sans-serif" font-size="13" lengthAdjust="spacing" textLength="49" x="468" y="349.4951">contains</text><text fill="#000000" font-family="sans-serif" font-size="13" lengthAdjust="spacing" textLength="7" x="446.1031" y="372.315">n</text></g><!--MD5=[40b945fef129f22546a5d85ac78dd69e]
link Tube to Ball--><g id="link_Tube_Ball"><path codeLine="46" d="M454,431.03 C454,451.52 454,481.56 454,503.55 " fill="none" id="Tube-to-Ball" style="stroke:#181818;stroke-width:1.0;"/><polygon fill="#181818" points="454,508.67,458,499.67,454,503.67,450,499.67,454,508.67" style="stroke:#181818;stroke-width:1.0;"/><polygon fill="#000000" points="459,475.1758,461.9389,466.1307,456.0611,466.1307,459,475.1758" style="stroke:#000000;stroke-width:1.0;"/><text fill="#000000" font-family="sans-serif" font-size="13" lengthAdjust="spacing" textLength="49" x="468" y="475.4951">contains</text><text fill="#000000" font-family="sans-serif" font-size="13" lengthAdjust="spacing" textLength="7" x="446.1469" y="498.3275">n</text></g><!--MD5=[80f364985e2ab3ce70e9e2cfc06d773d]
link App to ShapeMatchingGame--><g id="link_App_ShapeMatchingGame"><path codeLine="47" d="M597.84,64.38 C517.98,84.05 404.35,114.73 308,151 C303.99,152.51 299.94,154.08 295.87,155.71 " fill="none" id="App-to-ShapeMatchingGame" style="stroke:#181818;stroke-width:1.0;"/><polygon fill="#181818" points="291.08,157.64,300.9232,157.9748,295.7154,155.7658,297.9244,150.5581,291.08,157.64" style="stroke:#181818;stroke-width:1.0;"/><polygon fill="#000000" points="446.2141,113.6233,455.7227,113.8178,454.0211,108.1917,446.2141,113.6233" style="stroke:#000000;stroke-width:1.0;"/><text fill="#000000" font-family="sans-serif" font-size="13" lengthAdjust="spacing" textLength="54" x="460" y="117.4951">navigates</text></g><!--MD5=[fcb7301f910a1e4c6664f22755e05dbb]
link App to BallSortGame--><g id="link_App_BallSortGame"><path codeLine="48" d="M656.6,73.19 C623.17,98.57 575.57,134.71 534.9,165.58 " fill="none" id="App-to-BallSortGame" style="stroke:#181818;stroke-width:1.0;"/><polygon fill="#181818" points="530.48,168.94,540.0711,166.7016,534.468,165.924,535.2455,160.3209,530.48,168.94" style="stroke:#181818;stroke-width:1.0;"/><polygon fill="#000000" points="614.0176,115.1991,622.9989,112.0707,619.4448,107.3891,614.0176,115.1991" style="stroke:#000000;stroke-width:1.0;"/><text fill="#000000" font-family="sans-serif" font-size="13" lengthAdjust="spacing" textLength="54" x="627" y="117.4951">navigates</text></g><!--MD5=[d5489c772c4efcad8afd89870d29b08f]
link App to EncryptionGame--><g id="link_App_EncryptionGame"><path codeLine="49" d="M699,73.4 C699,98.19 699,133.17 699,163.48 " fill="none" id="App-to-EncryptionGame" style="stroke:#181818;stroke-width:1.0;"/><polygon fill="#181818" points="699,168.69,703,159.69,699,163.69,695,159.69,699,168.69" style="stroke:#181818;stroke-width:1.0;"/><polygon fill="#000000" points="704,117.1758,706.9389,108.1307,701.0611,108.1307,704,117.1758" style="stroke:#000000;stroke-width:1.0;"/><text fill="#000000" font-family="sans-serif" font-size="13" lengthAdjust="spacing" textLength="54" x="713" y="117.4951">navigates</text></g><!--MD5=[d1fb3b35c044634ee685a5602170b205]
link App to GreedyTrolls--><g id="link_App_GreedyTrolls"><path codeLine="50" d="M751.95,73.19 C794.05,98.77 854.13,135.3 905.19,166.33 " fill="none" id="App-to-GreedyTrolls" style="stroke:#181818;stroke-width:1.0;"/><polygon fill="#181818" points="909.48,168.94,903.872,160.8437,905.209,166.3403,899.7124,167.6773,909.48,168.94" style="stroke:#181818;stroke-width:1.0;"/><polygon fill="#000000" points="834.2727,114.7727,828.0698,107.5634,825.0169,112.5862,834.2727,114.7727" style="stroke:#000000;stroke-width:1.0;"/><text fill="#000000" font-family="sans-serif" font-size="13" lengthAdjust="spacing" textLength="54" x="839" y="117.4951">navigates</text></g><!--MD5=[5fbe228c1cf5da38a7e36ce194e89ccf]
link App to QRCodeGenerator--><g id="link_App_QRCodeGenerator"><path codeLine="51" d="M800.16,68.7 C806.19,70.19 812.17,71.64 818,73 C991.41,113.48 1049.73,75.49 1211,151 C1232.2,160.93 1252.77,176.63 1269.24,191.2 " fill="none" id="App-to-QRCodeGenerator" style="stroke:#181818;stroke-width:1.0;"/><polygon fill="#181818" points="1273.33,194.87,1269.3162,185.8761,1269.6135,191.5252,1263.9645,191.8225,1273.33,194.87" style="stroke:#181818;stroke-width:1.0;"/><polygon fill="#000000" points="1142.8378,113.4392,1134.8288,108.3101,1133.3436,113.9972,1142.8378,113.4392" style="stroke:#000000;stroke-width:1.0;"/><text fill="#000000" font-family="sans-serif" font-size="13" lengthAdjust="spacing" textLength="54" x="1147" y="117.4951">navigates</text></g><!--MD5=[b5b7a6e87348724ee602a3328b12a331]
@startuml

class ShapeMatchingGame {
  -initialDrawers: Drawer[]
  -currentShape: Shape
  +onDragEnd(result: any): void
  +renderDrawers(): JSX.Element
  +handleDrawerClick(drawer: Drawer): void
  +getImagePath(shape: Shape): string
}

class BallSortGame {
  -initialTubes: Tube[]
  +onDragEnd(result: DropResult): void
  +checkWinCondition(): void
  +getTubeImagePath(id: string): string
}

class EncryptionGame {
  -userInput: string
  -timer: number
  -isGameOver: boolean
  +checkSolution(): void
}

class GreedyTrolls {
  -coinsState: CoinItem[]
  +onDragEnd(result: DropResult): void
  +checkWinCondition(currentSequence: CoinType[]): void
  +getImagePath(type: CoinType): string
}

class QRCodeGenerator {
  +qrCodeValue: string
}

class App {
  +RouterSetup(): JSX.Element
}

class StrictModeDroppable {
  -enabled: boolean
}

ShapeMatchingGame - -> "1" Drawer
BallSortGame - -> "n" Tube : contains >
Tube - -> "n" Ball : contains >
App -down-> ShapeMatchingGame : navigates >
App -down-> BallSortGame : navigates >
App -down-> EncryptionGame : navigates >
App -down-> GreedyTrolls : navigates >
App -down-> QRCodeGenerator : navigates >

@enduml

PlantUML version 1.2022.7(Mon Aug 22 18:01:30 BST 2022)
(GPL source distribution)
Java Runtime: Java(TM) SE Runtime Environment
JVM: Java HotSpot(TM) Client VM
Default Encoding: Cp1252
Language: en
Country: GB
--></g></svg>