<?xml version="1.0" encoding="UTF-8" standalone="no"?>
<!-- Created with Inkscape (http://www.inkscape.org/) -->

<svg
   width="16.119474mm"
   height="16.11824mm"
   viewBox="0 0 26.119474 26.11824"
   version="1.1"
   id="svg1421"
   inkscape:version="1.1.1 (3bf5ae0d25, 2021-09-20)"
   sodipodi:docname="2022-CH-04_gold.svg"
   xmlns:inkscape="http://www.inkscape.org/namespaces/inkscape"
   xmlns:sodipodi="http://sodipodi.sourceforge.net/DTD/sodipodi-0.dtd"
   xmlns="http://www.w3.org/2000/svg"
   xmlns:svg="http://www.w3.org/2000/svg"
   xmlns:serif="http://www.serif.com/">
  <sodipodi:namedview
     id="namedview1423"
     pagecolor="#ffffff"
     bordercolor="#666666"
     borderopacity="1.0"
     inkscape:pageshadow="2"
     inkscape:pageopacity="0.0"
     inkscape:pagecheckerboard="0"
     inkscape:document-units="mm"
     showgrid="false"
     fit-margin-top="0"
     fit-margin-left="0"
     fit-margin-right="0"
     fit-margin-bottom="0"
     inkscape:zoom="0.66368547"
     inkscape:cx="387.98499"
     inkscape:cy="555.23289"
     inkscape:window-width="1920"
     inkscape:window-height="1137"
     inkscape:window-x="-8"
     inkscape:window-y="-8"
     inkscape:window-maximized="1"
     inkscape:current-layer="layer1" />
  <defs
     id="defs1418" />
  <g
     inkscape:label="Ebene 1"
     inkscape:groupmode="layer"
     id="layer1"
     transform="translate(-2.4322281,-1.5781993)">
    <g
       transform="matrix(0.26458333,0,0,0.26458333,-111.68048,-76.322166)"
       id="g499"
       style="clip-rule:evenodd;fill-rule:evenodd;stroke-linecap:round;stroke-linejoin:round">
      <g
         id="path5168-1-1-3-1-6-7-6-7-84"
         serif:id="path5168-1-1-3-1-6-7-6-7-8"
         transform="matrix(0.466427,0,0,0.466427,1076.37,-245.472)">
        <path
           d="m -1277.19,1161.52 v 0 c -55.86,0 -101.83,45.96 -101.83,101.82 v 0 c 0,55.86 45.97,101.82 101.83,101.82 v 0 c 55.86,0 101.82,-45.96 101.82,-101.82 v 0 c 0,-55.86 -45.96,-101.82 -101.82,-101.82 z"
           style="fill:#ffd100;fill-rule:nonzero;stroke:#fddf69;stroke-width:8px"
           id="path486" />
      </g>
      <g
         id="path5164-1-3-8-1-5-0-0-6-14"
         serif:id="path5164-1-3-8-1-5-0-0-6-1"
         transform="matrix(0.107727,0,0,0.107727,436.271,301.197)">
        <path
           d="m 409.468,39.475 v 0 c -197.925,0 -360.792,162.867 -360.792,360.791 v 10e-4 c 0,197.924 162.867,360.791 360.792,360.791 v 0 c 197.924,0 360.792,-162.867 360.792,-360.791 v -10e-4 C 770.26,202.342 607.392,39.475 409.468,39.475 Z"
           style="fill:#ffd100;fill-rule:nonzero;stroke:#f0bc26;stroke-width:34.64px"
           id="path489" />
      </g>
      <g
         transform="matrix(3.47139,0,0,3.47139,-957.756,-428.276)"
         id="g494">
        <path
           d="m 409.998,230.065 v -0.363 c 0.984,-0.141 1.703,-0.461 2.156,-0.961 0.195,-0.219 0.332,-0.495 0.41,-0.827 0.078,-0.332 0.117,-0.806 0.117,-1.423 v -8.286 c 0,-0.781 -0.068,-1.367 -0.205,-1.757 -0.137,-0.391 -0.39,-0.676 -0.762,-0.856 -0.371,-0.18 -0.919,-0.301 -1.646,-0.363 v -0.363 l 5.332,-1.114 v 12.739 c 0,0.695 0.047,1.203 0.141,1.523 0.093,0.32 0.265,0.605 0.515,0.855 0.461,0.43 1.141,0.708 2.039,0.833 v 0.363 z m 2.039,-0.598 h 3.422 l -0.457,-0.34 c -0.172,-0.117 -0.303,-0.222 -0.393,-0.316 -0.09,-0.094 -0.152,-0.19 -0.187,-0.287 -0.036,-0.098 -0.053,-0.229 -0.053,-0.393 v -13.687 l -2.848,0.586 0.914,0.515 c 0.031,0.016 0.059,0.035 0.082,0.059 l 0.281,0.176 c 0.204,0.164 0.309,0.414 0.317,0.75 v 0.386 l 0.012,0.2 v 10.628 c -0.008,0.032 -0.012,0.161 -0.012,0.387 0,0.235 -0.037,0.41 -0.111,0.528 -0.075,0.117 -0.245,0.273 -0.51,0.468 z"
           style="fill:#dda825;fill-rule:nonzero"
           id="path492" />
      </g>
      <g
         id="path4518-3-4-0-8-9-44"
         serif:id="path4518-3-4-0-8-9-4"
         transform="matrix(0.488104,0,0,0.488104,1598.27,291.171)">
        <path
           d="m -2230.41,30.735 c -2.18,-1.702 -4.43,-3.311 -6.74,-4.822 -2.73,-1.753 -5.55,-3.368 -8.44,-4.839 -2.89,-1.472 -5.85,-2.798 -8.88,-3.974 -3.02,-1.175 -6.1,-2.199 -9.23,-3.067 -3.12,-0.867 -6.29,-1.578 -9.49,-2.129 -0.4,-0.052 -0.81,-0.101 -1.22,-0.148 l -99.99,143.845 c 1.35,2.438 2.81,4.816 4.37,7.129 1.83,2.677 3.79,5.261 5.88,7.742 2.09,2.481 4.31,4.857 6.64,7.117 2.32,2.26 4.76,4.403 7.3,6.419 2.54,2.017 5.18,3.905 7.91,5.658 0.34,0.194 0.67,0.387 1.01,0.577 z"
           style="fill:#f7f5e1;fill-opacity:0.26;fill-rule:nonzero"
           id="path496" />
      </g>
    </g>
  </g>
</svg>
