<?xml version="1.0" encoding="UTF-8" standalone="no"?>
<!-- Created with Inkscape (http://www.inkscape.org/) -->

<svg
   width="23.28409mm"
   height="27.990395mm"
   viewBox="0 0 23.28409 27.990394"
   version="1.1"
   id="svg2320"
   sodipodi:docname="2022-CH-04_coriander.svg"
   inkscape:version="1.1.1 (3bf5ae0d25, 2021-09-20)"
   xmlns:inkscape="http://www.inkscape.org/namespaces/inkscape"
   xmlns:sodipodi="http://sodipodi.sourceforge.net/DTD/sodipodi-0.dtd"
   xmlns="http://www.w3.org/2000/svg"
   xmlns:svg="http://www.w3.org/2000/svg">
  <sodipodi:namedview
     id="namedview2322"
     pagecolor="#ffffff"
     bordercolor="#666666"
     borderopacity="1.0"
     inkscape:pageshadow="2"
     inkscape:pageopacity="0.0"
     inkscape:pagecheckerboard="0"
     inkscape:document-units="mm"
     showgrid="false"
     fit-margin-top="0"
     fit-margin-left="0"
     fit-margin-right="0"
     fit-margin-bottom="0"
     inkscape:zoom="1.3273709"
     inkscape:cx="50.852402"
     inkscape:cy="135.98309"
     inkscape:window-width="1920"
     inkscape:window-height="1137"
     inkscape:window-x="-8"
     inkscape:window-y="-8"
     inkscape:window-maximized="1"
     inkscape:current-layer="layer1" />
  <defs
     id="defs2317" />
  <g
     inkscape:label="Ebene 1"
     inkscape:groupmode="layer"
     id="layer1"
     transform="translate(-82.294324,-80.272428)">
    <g
       transform="matrix(-0.08923116,-0.04944728,-0.04944728,0.08923116,262.97048,157.82425)"
       id="g757"
       style="clip-rule:evenodd;fill-rule:evenodd;stroke-linecap:round;stroke-linejoin:round">
      <g
         transform="matrix(0.973716,-0.466707,0.411756,0.859068,-52.9601,848.302)"
         id="g739">
        <path
           d="m 1745.77,269.328 c 0.49,-0.085 0.82,5.368 -3.01,3.287 -0.84,-0.46 -4.16,3.219 -4.81,4.027 -1.74,2.182 -0.59,2.32 -2.05,4.752 -0.19,0.327 -1.62,2.764 -1.37,3.018 0.98,0.973 5.7,-3.087 6.59,-2.195 3.01,3.011 -6.71,11.948 -3.29,15.364 0.87,0.871 3.25,-3.292 3.84,-3.292 0.24,0 -0.28,5.188 -0.28,5.212 -0.22,3.689 -0.44,9.474 1.92,12.62 1,1.325 1.91,-3.71 3.29,-3.017 4.05,2.022 3.75,20.475 12.35,10.151 1.16,-1.394 0.17,-3.083 0.82,-4.39 0.3,-0.59 0.81,1.056 1.1,1.646 0.68,1.354 1.24,2.761 1.92,4.115 1.76,3.512 2.92,4.023 6.59,4.39 0.03,0.004 2.52,0.608 2.74,0.274 0.85,-1.279 -1.41,-6.578 0.27,-6.859 3.03,-0.505 7.76,5.112 10.98,2.744 4.31,-3.175 -0.55,-7.253 -0.55,-10.7 0,-0.492 0.94,0.31 1.37,0.549 1.67,0.925 1.44,0.944 3.29,1.372 2.4,0.553 5.78,0.252 7.41,-1.921 3,-3.997 -0.56,-4.97 -1.65,-8.23 -0.04,-0.137 3.9,0.726 3.02,-1.921 -0.81,-2.446 -4.65,-6.305 -6.86,-7.407 -0.96,-0.479 2.13,1.691 3.02,1.097 1.69,-1.126 4.75,-6.966 3.84,-9.053 -2.97,-6.853 -15.47,-4.168 -20.85,-6.859 -1.07,-0.535 2.5,-5.041 3.02,-5.761 0.01,-0.02 1.25,-1.594 1.1,-1.646 -0.83,-0.276 -3.66,0.644 -4.12,-0.275 -1.18,-2.354 1.2,-6.414 -1.37,-7.956 -2.5,-1.502 -5.33,3.023 -8.23,2.195 -2.76,-0.789 -1.75,-5.397 -3.57,-5.761 -3.41,-0.683 -10.02,2.59 -10.54,8.43 z"
           style="fill:#38a838"
           id="path737" />
      </g>
      <g
         transform="matrix(1,0,0,0.90213,0,24.2553)"
         id="g743">
        <path
           d="m 1732.4,277.402 c 0.42,0.101 -0.07,-19.227 -2.78,-24.869 -0.81,-1.7 -1.46,-3.557 -3.02,-4.7"
           style="fill:none;stroke:#38a838;stroke-width:10.13px;stroke-miterlimit:1.5"
           id="path741" />
      </g>
      <g
         transform="matrix(0.973716,-0.466707,0.411756,0.859068,-60.8868,849.448)"
         id="g747">
        <path
           d="m 1744.32,265.276 c 1.84,0.104 3.19,1.313 4.61,2.532 4.95,4.244 8.21,8.023 9.23,14.602"
           style="fill:none;stroke:#38a838;stroke-width:9.47px;stroke-miterlimit:1.5"
           id="path745" />
      </g>
      <g
         transform="rotate(-174.63562,1740.8698,266.06984)"
         id="g751">
        <path
           d="m 1746.36,271.663 c -5.34,-1.624 -13.26,8.164 -10.46,9.731 0.34,0.186 -1.62,2.764 -1.37,3.018 0.98,0.973 5.7,-3.087 6.59,-2.195 3.01,3.011 -6.71,11.948 -3.29,15.364 0.87,0.871 3.25,-3.292 3.84,-3.292 0.24,0 -0.28,5.188 -0.28,5.212 -0.22,3.689 -0.44,9.474 1.92,12.62 1,1.325 1.91,-3.71 3.29,-3.017 4.05,2.022 3.75,20.475 12.35,10.151 1.16,-1.394 0.17,-3.083 0.82,-4.39 0.3,-0.59 0.81,1.056 1.1,1.646 0.68,1.354 1.24,2.761 1.92,4.115 1.76,3.512 2.92,4.023 6.59,4.39 0.03,0.004 2.52,0.608 2.74,0.274 0.85,-1.279 -1.41,-6.578 0.27,-6.859 3.03,-0.505 7.76,5.112 10.98,2.744 4.31,-3.175 -0.55,-7.253 -0.55,-10.7 0,-0.492 0.94,0.31 1.37,0.549 1.67,0.925 1.44,0.944 3.29,1.372 2.4,0.553 5.78,0.252 7.41,-1.921 3,-3.997 -0.56,-4.97 -1.65,-8.23 -0.04,-0.137 3.9,0.726 3.02,-1.921 -0.81,-2.446 -4.65,-6.305 -6.86,-7.407 -0.96,-0.479 2.13,1.691 3.02,1.097 1.69,-1.126 4.75,-6.966 3.84,-9.053 -2.97,-6.853 -15.47,-4.168 -20.85,-6.859 -1.07,-0.535 2.5,-5.041 3.02,-5.761 0.01,-0.02 1.25,-1.594 1.1,-1.646 -0.83,-0.276 -3.66,0.644 -4.12,-0.275 -1.18,-2.354 1.2,-6.414 -1.37,-7.956 -2.5,-1.502 -5.33,3.023 -8.23,2.195 -2.76,-0.789 -1.75,-5.397 -3.57,-5.761 -1.6,-0.32 -3.65,0.718 -5.6,2.179 -2.21,1.656 -1.46,3.362 -2.56,4.738 -1.41,1.766 -5.26,0.163 -5.28,0.216 -0.24,0.706 -1.88,5.067 -2.44,5.632 z"
           style="fill:#38a838"
           id="path749" />
      </g>
      <path
         d="m 1802.19,157.79 c 0,1.064 -0.24,2.122 -0.21,1.495 0.02,-0.43 0.09,-0.94 0.21,-1.495 0,-0.688 -0.09,-1.379 -0.41,-1.619 -1.56,-1.159 -7.87,6.446 -7.88,8.513 -0.02,13.481 3.72,33.047 1.06,34.373 -0.58,0.288 -1.72,-21.685 -3.26,-22.079 0.74,-3.942 0.48,-7.181 -5.97,-5.233 -1.61,0.484 -1.62,2.28 -2.78,2.954 -0.52,0.304 -0.13,-1.215 -0.09,-1.817 0.11,-1.38 0.33,-2.746 0.43,-4.126 0.28,-3.58 -0.41,-4.558 -3.19,-6.688 -0.03,-0.023 -1.74,-1.737 -2.08,-1.594 -1.3,0.552 -2.02,5.76 -3.51,5.126 -2.69,-1.14 -3.79,-7.833 -7.52,-7.637 -5,0.263 -3.04,5.843 -4.7,8.489 -0.24,0.378 -0.61,-0.712 -0.84,-1.113 -0.9,-1.549 -0.7,-1.448 -1.99,-2.712 -1.67,-1.634 -4.53,-3.106 -6.89,-2.26 -4.33,1.557 -1.94,4.097 -2.63,7.147 -0.03,0.127 -2.79,-2.524 -3.35,-0.048 -0.43,1.874 0.33,5.496 1.3,7.822 0.59,0.852 0.99,1.837 0.66,1.321 -0.22,-0.355 -0.45,-0.807 -0.66,-1.321 -0.39,-0.551 -0.85,-1.045 -1.24,-1.043 -1.9,0.013 -4.07,11.401 -3.91,13.489 1.35,16.753 5.2,41.573 17.64,39.761 11.17,-1.628 10.81,7.712 10.84,7.751 0.43,0.519 9.06,-11.074 11.26,-0.104 1.47,7.341 16.21,8.12 28.16,12.9 1.39,0.558 8.45,-0.275 9.67,-1.083 3.54,-2.358 17.73,6.462 13.9,-5.35 -0.52,-1.595 -2.31,-1.57 -3.01,-2.71 -0.31,-0.515 1.21,-0.164 1.82,-0.13 0.51,0.028 1.03,0.074 1.55,0.123 l 1.03,0.1 c 0.52,0.049 1.03,0.094 1.55,0.123 3.59,0.2 4.55,-0.509 6.62,-3.33 0.02,-0.03 1.7,-1.773 1.55,-2.109 -0.58,-1.29 -5.8,-1.906 -5.2,-3.41 1.09,-2.706 7.76,-3.952 7.49,-7.673 -0.37,-4.991 -5.91,-2.923 -8.59,-4.524 -0.38,-0.229 0.7,-0.624 1.1,-0.864 1.53,-0.927 1.43,-0.733 2.67,-2.047 1.6,-1.698 3.01,-4.593 2.12,-6.932 -1.65,-4.301 -4.14,-1.853 -7.2,-2.481 -0.13,-0.027 0.72,-0.926 -0.03,-3.353 -0.96,-3.162 -7.11,1.529 -7.12,1.136 -0.02,-0.798 -19.39,3.231 -20.18,1.88 2.2,-1.026 19.14,-5.343 20.16,-7.224 0.73,-1.348 0.56,-3.896 0.62,-5.389 0.19,-4.359 15.59,-10.274 3.87,-14.638 -1.59,-0.589 -2.62,0.88 -3.95,0.724 -0.59,-0.071 0.58,-1.085 0.96,-1.551 0.88,-1.07 1.83,-2.058 2.71,-3.128 2.26,-2.776 2.26,-4.004 1.21,-7.464 -0.01,-0.037 -0.43,-2.498 -0.79,-2.588 -1.37,-0.347 -4.93,3.49 -5.78,2.051 -1.53,-2.587 1.38,-8.774 -1.77,-10.905 -4.22,-2.858 -5.81,2.933 -8.66,4.089 -0.41,0.165 -0.09,-0.96 -0.05,-1.432 0.15,-1.825 0.25,-1.623 -0.08,-3.456 -0.43,-2.367 -1.92,-5.341 -4.32,-6.095 -4.42,-1.387 -3.91,2.177 -6.21,4.259 -0.1,0.087 -0.84,-3.792 -2.71,-2.101 -1.41,1.279 -2.86,4.72 -3.4,7.23 z"
         style="fill:#38a838"
         id="path753" />
      <path
         d="m 1777.29,225.408 c 0.57,-0.218 -2.1,4.707 -2.85,5.641 -2.7,3.38 -3.44,8.312 -6.55,11.413 -1.15,1.159 -3.13,1.864 -4.19,3.189 -0.82,1.022 -0.93,2.537 -1.51,3.693 -0.95,1.889 -2.71,3.445 -4.03,5.036 -2.87,3.448 -7.22,5.58 -10.74,8.224 -3.47,2.602 -6.32,5.864 -9.91,8.393 -5.11,3.609 -9.41,8.343 -14.93,11.413 -17.81,9.892 -37.23,16.804 -54.72,27.192 -11.62,6.899 -19.53,18.406 -31.73,24.506"
         style="fill:none;stroke:#38a838;stroke-width:9.65px;stroke-miterlimit:1.5"
         id="path755" />
    </g>
  </g>
</svg>
