<?xml version="1.0" encoding="UTF-8" standalone="no"?>
<!-- Created with Inkscape (http://www.inkscape.org/) -->

<svg
   width="23.28409mm"
   height="27.990395mm"
   viewBox="0 0 23.28409 27.990394"
   version="1.1"
   id="svg2320"
   sodipodi:docname="2022-CH-04_lavanderl.svg"
   inkscape:version="1.1.1 (3bf5ae0d25, 2021-09-20)"
   xmlns:inkscape="http://www.inkscape.org/namespaces/inkscape"
   xmlns:sodipodi="http://sodipodi.sourceforge.net/DTD/sodipodi-0.dtd"
   xmlns="http://www.w3.org/2000/svg"
   xmlns:svg="http://www.w3.org/2000/svg">
  <sodipodi:namedview
     id="namedview2322"
     pagecolor="#ffffff"
     bordercolor="#666666"
     borderopacity="1.0"
     inkscape:pageshadow="2"
     inkscape:pageopacity="0.0"
     inkscape:pagecheckerboard="0"
     inkscape:document-units="mm"
     showgrid="false"
     fit-margin-top="0"
     fit-margin-left="0"
     fit-margin-right="0"
     fit-margin-bottom="0"
     inkscape:zoom="1.3273709"
     inkscape:cx="50.852402"
     inkscape:cy="135.98309"
     inkscape:window-width="1920"
     inkscape:window-height="1137"
     inkscape:window-x="-8"
     inkscape:window-y="-8"
     inkscape:window-maximized="1"
     inkscape:current-layer="layer1" />
  <defs
     id="defs2317" />
  <g
     inkscape:label="Ebene 1"
     inkscape:groupmode="layer"
     id="layer1"
     transform="translate(-82.294324,-80.272428)">
    <g
       transform="matrix(0.09718247,0.02109621,-0.02109621,0.09718247,74.232332,56.43863)"
       id="g691"
       style="clip-rule:evenodd;fill-rule:evenodd;stroke-linecap:round;stroke-linejoin:round">
      <path
         d="m 329.455,451.854 c 0.054,0.007 2.531,0.548 2.531,-0.391 0,-2.1 -3.236,-2.971 -3.868,-4.973 -5.988,-18.961 -9.092,-37.846 -16.577,-56.362 -15.997,-39.573 -33.489,-77.875 -53.045,-115.484 -6.684,-12.854 -15.75,-23.191 -24.866,-34.259 -5.159,-6.265 -13.261,-16.251 -13.261,-14.919"
         style="fill:none;stroke:#2f784b;stroke-width:7.52px;stroke-miterlimit:1.5"
         id="path639" />
      <path
         d="m 218.711,224.913 c 8.086,-9.076 -10.29,-26.524 -14.919,-16.024 -1.718,3.897 10.101,20.842 14.919,16.024 z"
         style="fill:#bb8bfb"
         id="path641" />
      <g
         transform="translate(-1.80939,-3.4483)"
         id="g645">
        <path
           d="m 229.21,239.28 c -6.754,-8.216 -19.737,-1.245 -18.235,2.762 3.236,8.629 22.907,7.25 18.235,-2.762 z"
           style="fill:#bb8bfb"
           id="path643" />
      </g>
      <g
         transform="translate(-3.6137,-6.57077)"
         id="g649">
        <path
           d="m 243.278,260.298 c 3.552,-8.904 -22.449,-11.349 -17.936,2.189 3.466,10.398 16.643,3.934 17.936,-2.189 z"
           style="fill:#bb8bfb"
           id="path647" />
      </g>
      <g
         transform="translate(-4.40199,-1.55328)"
         id="g653">
        <path
           d="m 236.946,235.412 c -0.055,0.462 13.371,-10.043 3.315,-13.814 -14.209,-5.329 -10.472,13.814 -3.315,13.814 z"
           style="fill:#bb8bfb"
           id="path651" />
      </g>
      <g
         transform="translate(-10.4709,-6.74745)"
         id="g657">
        <path
           d="m 255.525,257.412 c 10.167,-3.224 -1.716,-19.295 -2.003,-19.237 -15.949,3.189 2.003,19.237 2.003,19.237 z"
           style="fill:#bb8bfb"
           id="path655" />
      </g>
      <g
         transform="translate(-7.31038,-13.7612)"
         id="g661">
        <path
           d="m 256.838,280.169 c 1.138,-8.408 -22.249,-8.028 -16.577,3.315 2.818,5.636 18.876,5.884 16.577,-3.315 z"
           style="fill:#bb8bfb"
           id="path659" />
      </g>
      <g
         transform="translate(-11.669,-13.4482)"
         id="g665">
        <path
           d="m 273.967,271.328 c 0,0 -0.704,-14.014 -7.736,-10.498 -12.861,6.43 3.742,26.476 7.736,10.498 z"
           style="fill:#bb8bfb"
           id="path663" />
      </g>
      <g
         transform="translate(-14.0925,-20.26)"
         id="g669">
        <path
           d="m 278.237,300.665 c 1.271,4.508 10.753,-16.225 6.229,-17.733 -9.558,-3.186 -12.616,11.836 -6.229,17.733 z"
           style="fill:#bb8bfb"
           id="path667" />
      </g>
      <g
         transform="translate(-12.3175,-21.5893)"
         id="g673">
        <path
           d="m 272.31,305.034 c 0.584,-8.23 -23.605,-11.537 -19.34,1.105 2.676,7.935 17.988,7.004 19.34,-1.105 z"
           style="fill:#bb8bfb"
           id="path671" />
      </g>
      <g
         transform="rotate(4.0393798,47.784838,400.11446)"
         id="g677">
        <path
           d="m 322.787,404.362 c -0.064,-6.128 -6.169,-56.552 -9.036,-62.859 -4.576,-10.069 -11.838,-2.522 -7.735,7.736 2.896,7.24 5.552,14.806 8.288,22.102 4.046,10.789 5.534,21.963 8.483,33.021 z"
           style="fill:#2f784b"
           id="path675" />
      </g>
      <g
         transform="translate(9.66864,16.4358)"
         id="g681">
        <path
           d="m 306.552,393.945 c 4.891,-9.058 -18.636,-31.706 -23.744,-39.733 -0.502,-0.789 -8.438,-12.559 -11.604,-9.393 -1.837,1.837 5.348,12.043 6.079,13.261 10.397,17.329 24.159,15.425 29.269,35.865 z"
           style="fill:#2f784b"
           id="path679" />
      </g>
      <g
         transform="matrix(0.509886,0,0,1,159.02,9.39647)"
         id="g685">
        <path
           d="m 338.064,444.832 c 2.976,0.891 7.183,-13.589 7.183,-16.577 0,-8.771 6.019,-43.57 -7.735,-45.862 -6.709,-1.118 -4.407,11.971 -3.868,15.471 2.443,15.883 4.42,30.88 4.42,46.968 z"
           style="fill:#2f784b"
           id="path683" />
      </g>
      <g
         transform="translate(2.7763,-3.53142)"
         id="g689">
        <path
           d="m 323.684,457.178 c 7.161,-2.401 -4.347,-15.143 -6.065,-17.872 -7.931,-12.596 -18.001,-22.434 -30.943,-29.285 -1.496,-0.793 -9.055,-8.858 -11.154,-6.76 -4.054,4.055 8.065,12.091 10.049,13.943 10.387,9.694 37.705,25.964 38.113,39.974 z"
           style="fill:#2f784b"
           id="path687" />
      </g>
    </g>
  </g>
</svg>
