<?xml version="1.0" encoding="UTF-8" standalone="no"?>
<!-- Created with Inkscape (http://www.inkscape.org/) -->

<svg
   width="16.119474mm"
   height="16.11824mm"
   viewBox="0 0 26.119474 26.11824"
   version="1.1"
   id="svg1421"
   inkscape:version="1.1.1 (3bf5ae0d25, 2021-09-20)"
   sodipodi:docname="2022-CH-04_silver.svg"
   xmlns:inkscape="http://www.inkscape.org/namespaces/inkscape"
   xmlns:sodipodi="http://sodipodi.sourceforge.net/DTD/sodipodi-0.dtd"
   xmlns="http://www.w3.org/2000/svg"
   xmlns:svg="http://www.w3.org/2000/svg"
   xmlns:serif="http://www.serif.com/">
  <sodipodi:namedview
     id="namedview1423"
     pagecolor="#ffffff"
     bordercolor="#666666"
     borderopacity="1.0"
     inkscape:pageshadow="2"
     inkscape:pageopacity="0.0"
     inkscape:pagecheckerboard="0"
     inkscape:document-units="mm"
     showgrid="false"
     fit-margin-top="0"
     fit-margin-left="0"
     fit-margin-right="0"
     fit-margin-bottom="0"
     inkscape:zoom="0.66368547"
     inkscape:cx="387.98499"
     inkscape:cy="555.23289"
     inkscape:window-width="1920"
     inkscape:window-height="1137"
     inkscape:window-x="-8"
     inkscape:window-y="-8"
     inkscape:window-maximized="1"
     inkscape:current-layer="layer1" />
  <defs
     id="defs1418" />
  <g
     inkscape:label="Ebene 1"
     inkscape:groupmode="layer"
     id="layer1"
     transform="translate(-2.4322281,-1.5781993)">
    <g
       transform="matrix(0.26458333,0,0,0.26458333,-41.98685,-77.365153)"
       id="g45"
       style="clip-rule:evenodd;fill-rule:evenodd;stroke-linecap:round;stroke-linejoin:round">
      <g
         id="path5168-1-1-3-1-6-7-6-7-82"
         serif:id="path5168-1-1-3-1-6-7-6-7-8"
         transform="matrix(0.466427,0,0,0.466427,812.961,-241.53)">
        <path
           d="m -1277.19,1161.52 v 0 c -55.86,0 -101.83,45.96 -101.83,101.82 v 0 c 0,55.86 45.97,101.82 101.83,101.82 v 0 c 55.86,0 101.82,-45.96 101.82,-101.82 v 0 c 0,-55.86 -45.96,-101.82 -101.82,-101.82 z"
           style="fill:#cccdcf;fill-rule:nonzero;stroke:#bdbebf;stroke-width:8px"
           id="path32" />
      </g>
      <g
         id="path5164-1-3-8-1-5-0-0-6-12"
         serif:id="path5164-1-3-8-1-5-0-0-6-1"
         transform="matrix(0.107727,0,0,0.107727,172.867,305.139)">
        <path
           d="m 409.468,39.475 v 0 c -197.925,0 -360.792,162.867 -360.792,360.791 v 10e-4 c 0,197.924 162.867,360.791 360.792,360.791 v 0 c 197.924,0 360.792,-162.867 360.792,-360.791 v -10e-4 C 770.26,202.342 607.392,39.475 409.468,39.475 Z"
           style="fill:#c6c6c6;fill-rule:nonzero;stroke:#e7e7e7;stroke-width:34.64px"
           id="path35" />
      </g>
      <g
         transform="matrix(3.47139,0,0,3.47139,-1223.99,-423.447)"
         id="g40">
        <path
           d="m 411.064,227.639 h 4.067 c 1.031,0 1.867,-0.148 2.507,-0.445 0.641,-0.297 1.207,-0.789 1.7,-1.477 h 0.386 l -1.125,4.348 H 409.4 l -0.012,-0.481 c 0.352,-0.765 0.766,-1.504 1.243,-2.215 0.476,-0.71 1.171,-1.621 2.085,-2.73 0.391,-0.484 0.721,-0.893 0.991,-1.225 0.269,-0.332 0.478,-0.587 0.627,-0.767 0.789,-1 1.353,-1.871 1.693,-2.613 0.34,-0.743 0.51,-1.493 0.51,-2.25 0,-0.641 -0.115,-1.235 -0.346,-1.782 -0.23,-0.547 -0.549,-0.974 -0.955,-1.283 -0.406,-0.308 -0.844,-0.463 -1.313,-0.463 -0.976,0 -1.484,0.61 -1.523,1.828 l -0.023,0.621 c -0.032,0.954 -0.403,1.43 -1.114,1.43 -0.343,0 -0.629,-0.123 -0.855,-0.369 -0.227,-0.246 -0.34,-0.564 -0.34,-0.955 0,-0.555 0.199,-1.065 0.598,-1.529 0.398,-0.465 0.943,-0.834 1.634,-1.108 0.692,-0.273 1.444,-0.41 2.256,-0.41 0.899,0 1.721,0.18 2.467,0.539 0.746,0.359 1.328,0.858 1.746,1.494 0.418,0.637 0.627,1.35 0.627,2.139 0,0.562 -0.103,1.092 -0.31,1.588 -0.207,0.496 -0.551,1.019 -1.032,1.57 -0.48,0.551 -1.111,1.147 -1.892,1.787 l -1.899,1.571 c -1.453,1.187 -2.519,2.25 -3.199,3.187 z m 1.125,-13.09 c -1.133,0.633 -1.699,1.399 -1.699,2.297 0,0.203 0.043,0.369 0.129,0.498 0.086,0.129 0.199,0.193 0.34,0.193 0.281,0 0.422,-0.21 0.422,-0.632 0,-0.586 0.058,-1.045 0.175,-1.377 0.117,-0.332 0.328,-0.659 0.633,-0.979 z m 5.531,14.93 0.411,-1.559 c -0.641,0.383 -1.477,0.574 -2.508,0.574 h -5.203 c -0.196,0.352 -0.368,0.68 -0.516,0.985 z m -4.5,-4.852 c 0.961,-0.867 1.856,-1.734 2.684,-2.601 0.883,-0.93 1.492,-1.699 1.828,-2.309 0.336,-0.609 0.504,-1.25 0.504,-1.922 0,-0.625 -0.123,-1.181 -0.369,-1.67 -0.246,-0.488 -0.6,-0.892 -1.061,-1.213 -0.461,-0.32 -0.996,-0.519 -1.605,-0.597 0.578,0.328 1.017,0.787 1.318,1.377 0.301,0.59 0.451,1.287 0.451,2.092 0,0.632 -0.113,1.257 -0.339,1.875 -0.227,0.617 -0.583,1.281 -1.067,1.992 -0.687,0.992 -1.469,1.984 -2.344,2.976 z"
           style="fill:#919191;fill-rule:nonzero"
           id="path38" />
      </g>
      <g
         id="path4518-3-4-0-8-9-42"
         serif:id="path4518-3-4-0-8-9-4"
         transform="matrix(0.488104,0,0,0.488104,1334.87,295.113)">
        <path
           d="m -2230.41,30.735 c -2.18,-1.702 -4.43,-3.311 -6.74,-4.822 -2.73,-1.753 -5.55,-3.368 -8.44,-4.839 -2.89,-1.472 -5.85,-2.798 -8.88,-3.974 -3.02,-1.175 -6.1,-2.199 -9.23,-3.067 -3.12,-0.867 -6.29,-1.578 -9.49,-2.129 -0.4,-0.052 -0.81,-0.101 -1.22,-0.148 l -99.99,143.845 c 1.35,2.438 2.81,4.816 4.37,7.129 1.83,2.677 3.79,5.261 5.88,7.742 2.09,2.481 4.31,4.857 6.64,7.117 2.32,2.26 4.76,4.403 7.3,6.419 2.54,2.017 5.18,3.905 7.91,5.658 0.34,0.194 0.67,0.387 1.01,0.577 z"
           style="fill:#f7f5e1;fill-opacity:0.26;fill-rule:nonzero;stroke:#bdbebf;stroke-width:2.05px;stroke-linecap:butt;stroke-miterlimit:2"
           id="path42" />
      </g>
    </g>
  </g>
</svg>
